@startuml
skinparam fixCircleLabelOverlapping true
skinparam componentStyle uml2
component "com_spring_netflix_oss_microservices_MonitorDashboardApplication\n\n\n\n\n\n" {
[com_spring_netflix_oss_microservices_MonitorDashboardApplication]
portin " " as com_spring_netflix_oss_microservices_MonitorDashboardApplication_requires_monitor_dashboard_
"com_spring_netflix_oss_microservices_MonitorDashboardApplication_requires_monitor_dashboard_"--[com_spring_netflix_oss_microservices_MonitorDashboardApplication]
}
interface "monitor-dashboard/" as interface.monitor_dashboard_
interface.monitor_dashboard_--"com_spring_netflix_oss_microservices_MonitorDashboardApplication_requires_monitor_dashboard_"
component "com_spring_netflix_oss_microservices_api_CardServiceController\n\n\n\n\n\n" {
[com_spring_netflix_oss_microservices_api_CardServiceController]
portin " " as com_spring_netflix_oss_microservices_api_CardServiceController_requires_card_service_api
"com_spring_netflix_oss_microservices_api_CardServiceController_requires_card_service_api"--[com_spring_netflix_oss_microservices_api_CardServiceController]
}
interface "card-service/api" as interface.card_service_api
interface.card_service_api--"com_spring_netflix_oss_microservices_api_CardServiceController_requires_card_service_api"
component "com_spring_netflix_oss_microservices_api_StatementServiceController\n\n\n\n\n\n" {
[com_spring_netflix_oss_microservices_api_StatementServiceController]
portin " " as com_spring_netflix_oss_microservices_api_StatementServiceController_requires_statement_service_api
"com_spring_netflix_oss_microservices_api_StatementServiceController_requires_statement_service_api"--[com_spring_netflix_oss_microservices_api_StatementServiceController]
}
interface "statement-service/api" as interface.statement_service_api
interface.statement_service_api--"com_spring_netflix_oss_microservices_api_StatementServiceController_requires_statement_service_api"
component "com_spring_netflix_oss_microservices_service\n\n\n\n\n\n" {
[com_spring_netflix_oss_microservices_service_CardClient]
[com_spring_netflix_oss_microservices_service_CardStatementServiceController]
[com_spring_netflix_oss_microservices_service_StatementClient]
portin " " as com_spring_netflix_oss_microservices_service_requires_card_statement_composite_api_statement_by_card
[com_spring_netflix_oss_microservices_service_CardStatementServiceController]..>[com_spring_netflix_oss_microservices_service_CardClient] : requires
[com_spring_netflix_oss_microservices_service_CardStatementServiceController]..>[com_spring_netflix_oss_microservices_service_StatementClient] : requires
"com_spring_netflix_oss_microservices_service_requires_card_statement_composite_api_statement_by_card"--[com_spring_netflix_oss_microservices_service_CardStatementServiceController]
}
interface "card-statement-composite/api/statement-by-card" as interface.card_statement_composite_api_statement_by_card
interface.card_statement_composite_api_statement_by_card--"com_spring_netflix_oss_microservices_service_requires_card_statement_composite_api_statement_by_card"

@enduml
