@startuml
skinparam fixCircleLabelOverlapping true
component "CallbackController\n\n\n\n\n\n" {
[app_coronawarn_server_services_callback_controller_CallbackController]
portin " " as CallbackController.requires._version_v1_callback_GET_
"CallbackController.requires._version_v1_callback_GET_"--[app_coronawarn_server_services_callback_controller_CallbackController]
}
interface "/version/v1/callback[GET]" as interface._version_v1_callback_GET_
interface._version_v1_callback_GET_--"CallbackController.requires._version_v1_callback_GET_"
component "FakeRequestController\n\n\n\n\n\n" {
[app_coronawarn_server_services_submission_controller_FakeRequestController]
portin " " as FakeRequestController.requires._version_v1_diagnosis_keys_POST_
"FakeRequestController.requires._version_v1_diagnosis_keys_POST_"--[app_coronawarn_server_services_submission_controller_FakeRequestController]
}
interface "/version/v1/diagnosis-keys[POST]" as interface._version_v1_diagnosis_keys_POST_
interface._version_v1_diagnosis_keys_POST_--"FakeRequestController.requires._version_v1_diagnosis_keys_POST_"
component "SrsOtpVerifier\n\n\n\n\n\n" {
[app_coronawarn_server_services_submission_verification_SrsOtpVerifier]
}
component "SubmissionController\n\n\n\n\n\n" {
[app_coronawarn_server_services_submission_controller_SubmissionController]
portin " " as SubmissionController.requires._version_v1_diagnosis_keys_POST_
portin " " as SubmissionController.requires._version_v1_submission_on_behalf_POST_
"SubmissionController.requires._version_v1_submission_on_behalf_POST_"--[app_coronawarn_server_services_submission_controller_SubmissionController]
"SubmissionController.requires._version_v1_diagnosis_keys_POST_"--[app_coronawarn_server_services_submission_controller_SubmissionController]
}
interface "/version/v1/submission-on-behalf[POST]" as interface._version_v1_submission_on_behalf_POST_
interface._version_v1_submission_on_behalf_POST_--"SubmissionController.requires._version_v1_submission_on_behalf_POST_"
interface "/version/v1/diagnosis-keys[POST]" as interface._version_v1_diagnosis_keys_POST_
interface._version_v1_diagnosis_keys_POST_--"SubmissionController.requires._version_v1_diagnosis_keys_POST_"
component "TanVerifier\n\n\n\n\n\n" {
[app_coronawarn_server_services_submission_verification_TanVerifier]
}
interface "app_coronawarn_server_common_federation_client_FederationFeignHttpClientProvider" as interface.app_coronawarn_server_common_federation_client_FederationFeignHttpClientProvider
interface.app_coronawarn_server_common_federation_client_FederationFeignHttpClientProvider--[app_coronawarn_server_common_federation_client_CloudFederationFeignHttpClientProvider]
interface "/diagnosiskeys/audit/download[GET]" as interface._diagnosiskeys_audit_download_GET_
[app_coronawarn_server_common_federation_client_FederationGatewayClient]..>interface._diagnosiskeys_audit_download_GET_ : requires
interface "/diagnosiskeys/callback[GET]" as interface._diagnosiskeys_callback_GET_
[app_coronawarn_server_common_federation_client_FederationGatewayClient]..>interface._diagnosiskeys_callback_GET_ : requires
interface "/diagnosiskeys/download[GET]" as interface._diagnosiskeys_download_GET_
[app_coronawarn_server_common_federation_client_FederationGatewayClient]..>interface._diagnosiskeys_download_GET_ : requires
interface "/diagnosiskeys/upload[POST]" as interface._diagnosiskeys_upload_POST_
[app_coronawarn_server_common_federation_client_FederationGatewayClient]..>interface._diagnosiskeys_upload_POST_ : requires
interface "app_coronawarn_server_common_federation_client_hostname_HostnameVerifierProvider" as interface.app_coronawarn_server_common_federation_client_hostname_HostnameVerifierProvider
interface.app_coronawarn_server_common_federation_client_hostname_HostnameVerifierProvider--[app_coronawarn_server_common_federation_client_hostname_DefaultHostnameVerifierProvider]
interface "app_coronawarn_server_common_federation_client_hostname_HostnameVerifierProvider" as interface.app_coronawarn_server_common_federation_client_hostname_HostnameVerifierProvider
interface.app_coronawarn_server_common_federation_client_hostname_HostnameVerifierProvider--[app_coronawarn_server_common_federation_client_hostname_NoopHostnameVerifierProvider]
interface "PagingAndSortingRepository" as interface.PagingAndSortingRepository
interface.PagingAndSortingRepository--[app_coronawarn_server_common_persistence_repository_CheckInProtectedReportsRepository]
interface "PagingAndSortingRepository" as interface.PagingAndSortingRepository
interface.PagingAndSortingRepository--[app_coronawarn_server_common_persistence_repository_DccRevocationEtagRepository]
interface "PagingAndSortingRepository" as interface.PagingAndSortingRepository
interface.PagingAndSortingRepository--[app_coronawarn_server_common_persistence_repository_DccRevocationListRepository]
interface "PagingAndSortingRepository" as interface.PagingAndSortingRepository
interface.PagingAndSortingRepository--[app_coronawarn_server_common_persistence_repository_DiagnosisKeyRepository]
interface "PagingAndSortingRepository" as interface.PagingAndSortingRepository
interface.PagingAndSortingRepository--[app_coronawarn_server_common_persistence_repository_FederationBatchInfoRepository]
interface "PagingAndSortingRepository" as interface.PagingAndSortingRepository
interface.PagingAndSortingRepository--[app_coronawarn_server_common_persistence_repository_FederationUploadKeyRepository]
interface "CrudRepository" as interface.CrudRepository
interface.CrudRepository--[app_coronawarn_server_common_persistence_repository_LocalStatisticsDownloadRepository]
interface "CrudRepository" as interface.CrudRepository
interface.CrudRepository--[app_coronawarn_server_common_persistence_repository_StatisticsDownloadRepository]
interface "PagingAndSortingRepository" as interface.PagingAndSortingRepository
interface.PagingAndSortingRepository--[app_coronawarn_server_common_persistence_repository_TraceTimeIntervalWarningRepository]
interface "ApplicationRunner" as interface.ApplicationRunner
interface.ApplicationRunner--[app_coronawarn_server_services_callback_registration_RegistrationRunner]
interface "app_coronawarn_server_services_distribution_dcc_DccRevocationFeignHttpClientProvider" as interface.app_coronawarn_server_services_distribution_dcc_DccRevocationFeignHttpClientProvider
interface.app_coronawarn_server_services_distribution_dcc_DccRevocationFeignHttpClientProvider--[app_coronawarn_server_services_distribution_dcc_CloudDccRevocationFeignHttpClientProvider]
interface "/[GET]" as interface.__GET_
[app_coronawarn_server_services_distribution_dcc_DccRevocationFeignClient]..>interface.__GET_ : requires
interface "app_coronawarn_server_services_distribution_dcc_DccRevocationClient" as interface.app_coronawarn_server_services_distribution_dcc_DccRevocationClient
interface.app_coronawarn_server_services_distribution_dcc_DccRevocationClient--[app_coronawarn_server_services_distribution_dcc_ProdDccRevocationClient]
interface "app_coronawarn_server_services_distribution_dcc_DccRevocationClient" as interface.app_coronawarn_server_services_distribution_dcc_DccRevocationClient
interface.app_coronawarn_server_services_distribution_dcc_DccRevocationClient--[app_coronawarn_server_services_distribution_dcc_TestDccRevocationClient]
interface "app_coronawarn_server_services_distribution_dgc_client_DccFeignHttpClientProvider" as interface.app_coronawarn_server_services_distribution_dgc_client_DccFeignHttpClientProvider
interface.app_coronawarn_server_services_distribution_dgc_client_DccFeignHttpClientProvider--[app_coronawarn_server_services_distribution_dgc_client_CloudDccFeignHttpClientProvider]
interface "/bnrules[GET]" as interface._bnrules_GET_
[app_coronawarn_server_services_distribution_dgc_client_DigitalCovidCertificateFeignClient]..>interface._bnrules_GET_ : requires
interface "/cclrules[GET]" as interface._cclrules_GET_
[app_coronawarn_server_services_distribution_dgc_client_DigitalCovidCertificateFeignClient]..>interface._cclrules_GET_ : requires
interface "/countrylist[GET]" as interface._countrylist_GET_
[app_coronawarn_server_services_distribution_dgc_client_DigitalCovidCertificateFeignClient]..>interface._countrylist_GET_ : requires
interface "/rules[GET]" as interface._rules_GET_
[app_coronawarn_server_services_distribution_dgc_client_DigitalCovidCertificateFeignClient]..>interface._rules_GET_ : requires
interface "/valuesets[GET]" as interface._valuesets_GET_
[app_coronawarn_server_services_distribution_dgc_client_DigitalCovidCertificateFeignClient]..>interface._valuesets_GET_ : requires
interface "app_coronawarn_server_services_distribution_dgc_client_DigitalCovidCertificateClient" as interface.app_coronawarn_server_services_distribution_dgc_client_DigitalCovidCertificateClient
interface.app_coronawarn_server_services_distribution_dgc_client_DigitalCovidCertificateClient--[app_coronawarn_server_services_distribution_dgc_client_ProdDigitalCovidCertificateClient]
interface "app_coronawarn_server_services_distribution_dgc_client_DigitalCovidCertificateClient" as interface.app_coronawarn_server_services_distribution_dgc_client_DigitalCovidCertificateClient
interface.app_coronawarn_server_services_distribution_dgc_client_DigitalCovidCertificateClient--[app_coronawarn_server_services_distribution_dgc_client_TestDigitalCovidCertificateClient]
interface "app_coronawarn_server_services_distribution_dgc_dsc_DscFeignHttpClientProvider" as interface.app_coronawarn_server_services_distribution_dgc_dsc_DscFeignHttpClientProvider
interface.app_coronawarn_server_services_distribution_dgc_dsc_DscFeignHttpClientProvider--[app_coronawarn_server_services_distribution_dgc_dsc_CloudDscFeignHttpClientProvider]
interface "/trustList/DSC[GET]" as interface._trustList_DSC_GET_
[app_coronawarn_server_services_distribution_dgc_dsc_DigitalSigningCertificatesFeignClient]..>interface._trustList_DSC_GET_ : requires
interface "app_coronawarn_server_services_distribution_dgc_dsc_DigitalSigningCertificatesClient" as interface.app_coronawarn_server_services_distribution_dgc_dsc_DigitalSigningCertificatesClient
interface.app_coronawarn_server_services_distribution_dgc_dsc_DigitalSigningCertificatesClient--[app_coronawarn_server_services_distribution_dgc_dsc_ProdDigitalSigningCertificatesClient]
interface "app_coronawarn_server_services_distribution_dgc_dsc_DigitalSigningCertificatesClient" as interface.app_coronawarn_server_services_distribution_dgc_dsc_DigitalSigningCertificatesClient
interface.app_coronawarn_server_services_distribution_dgc_dsc_DigitalSigningCertificatesClient--[app_coronawarn_server_services_distribution_dgc_dsc_TestDigitalSigningCertificateClient]
interface "ApplicationRunner" as interface.ApplicationRunner
interface.ApplicationRunner--[app_coronawarn_server_services_distribution_runner_Assembly]
interface "ApplicationRunner" as interface.ApplicationRunner
interface.ApplicationRunner--[app_coronawarn_server_services_distribution_runner_RetentionPolicy]
interface "ApplicationRunner" as interface.ApplicationRunner
interface.ApplicationRunner--[app_coronawarn_server_services_distribution_runner_RevAssembly]
interface "ApplicationRunner" as interface.ApplicationRunner
interface.ApplicationRunner--[app_coronawarn_server_services_distribution_runner_RevRetentionPolicy]
interface "ApplicationRunner" as interface.ApplicationRunner
interface.ApplicationRunner--[app_coronawarn_server_services_distribution_runner_S3Distribution]
interface "app_coronawarn_server_services_distribution_statistics_file_StatisticJsonFileLoader" as interface.app_coronawarn_server_services_distribution_statistics_file_StatisticJsonFileLoader
interface.app_coronawarn_server_services_distribution_statistics_file_StatisticJsonFileLoader--[app_coronawarn_server_services_distribution_statistics_file_MockStatisticJsonFileLoader]
interface "app_coronawarn_server_services_distribution_statistics_file_StatisticJsonFileLoader" as interface.app_coronawarn_server_services_distribution_statistics_file_StatisticJsonFileLoader
interface.app_coronawarn_server_services_distribution_statistics_file_StatisticJsonFileLoader--[app_coronawarn_server_services_distribution_statistics_file_RemoteStatisticJsonFileLoader]
interface "ApplicationRunner" as interface.ApplicationRunner
interface.ApplicationRunner--[app_coronawarn_server_services_download_runner_RetentionPolicy]
interface "app_coronawarn_server_services_federation_upload_client_FederationUploadClient" as interface.app_coronawarn_server_services_federation_upload_client_FederationUploadClient
interface.app_coronawarn_server_services_federation_upload_client_FederationUploadClient--[app_coronawarn_server_services_federation_upload_client_ProdFederationUploadClient]
interface "app_coronawarn_server_services_federation_upload_client_FederationUploadClient" as interface.app_coronawarn_server_services_federation_upload_client_FederationUploadClient
interface.app_coronawarn_server_services_federation_upload_client_FederationUploadClient--[app_coronawarn_server_services_federation_upload_client_TestFederationUploadClient]
interface "app_coronawarn_server_services_federation_upload_keys_DiagnosisKeyLoader" as interface.app_coronawarn_server_services_federation_upload_keys_DiagnosisKeyLoader
interface.app_coronawarn_server_services_federation_upload_keys_DiagnosisKeyLoader--[app_coronawarn_server_services_federation_upload_keys_DiagnosisKeyPersistenceLoader]
interface "ApplicationRunner" as interface.ApplicationRunner
interface.ApplicationRunner--[app_coronawarn_server_services_federation_upload_runner_Upload]
interface "HealthIndicator" as interface.HealthIndicator
interface.HealthIndicator--[app_coronawarn_server_services_submission_monitoring_SrsVerifyServiceHealthIndicator]
interface "HealthIndicator" as interface.HealthIndicator
interface.HealthIndicator--[app_coronawarn_server_services_submission_monitoring_VerificationServiceHealthIndicator]
interface "/version/v1/srs[POST]" as interface._version_v1_srs_POST_
[app_coronawarn_server_services_submission_verification_SrsVerifyClient]..>interface._version_v1_srs_POST_ : requires
interface "/version/v1/tan/verify[POST]" as interface._version_v1_tan_verify_POST_
[app_coronawarn_server_services_submission_verification_VerificationServerClient]..>interface._version_v1_tan_verify_POST_ : requires

@enduml
