@startuml
skinparam fixCircleLabelOverlapping true
skinparam componentStyle uml2
component "app_coronawarn_logupload\n\n\n\n\n\n" {
[app_coronawarn_logupload_service_LogCleanupService]
[app_coronawarn_logupload_repository_LogRepository]
[app_coronawarn_logupload_service_LogService]
[app_coronawarn_logupload_service_FileStorageService]
[app_coronawarn_logupload_service_LogCleanupService]..>[app_coronawarn_logupload_repository_LogRepository] : requires
[app_coronawarn_logupload_service_FileStorageService]..>[app_coronawarn_logupload_repository_LogRepository] : requires
[app_coronawarn_logupload_service_LogService]..>[app_coronawarn_logupload_repository_LogRepository] : requires
}
component "app_coronawarn_logupload_controller_LogDownloadApiController\n\n\n\n\n\n" {
[app_coronawarn_logupload_controller_LogDownloadApiController]
portin " " as app_coronawarn_logupload_controller_LogDownloadApiController_requires_SPRING_APPLICATION_portal_api_logs_GET_
"app_coronawarn_logupload_controller_LogDownloadApiController_requires_SPRING_APPLICATION_portal_api_logs_GET_"--[app_coronawarn_logupload_controller_LogDownloadApiController]
}
interface "SPRING-APPLICATION/portal/api/logs[GET]" as interface.SPRING_APPLICATION_portal_api_logs_GET_
interface.SPRING_APPLICATION_portal_api_logs_GET_--"app_coronawarn_logupload_controller_LogDownloadApiController_requires_SPRING_APPLICATION_portal_api_logs_GET_"
component "app_coronawarn_logupload_controller_LogUploadApiController\n\n\n\n\n\n" {
[app_coronawarn_logupload_controller_LogUploadApiController]
portin " " as app_coronawarn_logupload_controller_LogUploadApiController_requires_SPRING_APPLICATION_api_logs_POST_
"app_coronawarn_logupload_controller_LogUploadApiController_requires_SPRING_APPLICATION_api_logs_POST_"--[app_coronawarn_logupload_controller_LogUploadApiController]
}
interface "SPRING-APPLICATION/api/logs[POST]" as interface.SPRING_APPLICATION_api_logs_POST_
interface.SPRING_APPLICATION_api_logs_POST_--"app_coronawarn_logupload_controller_LogUploadApiController_requires_SPRING_APPLICATION_api_logs_POST_"
component "app_coronawarn_logupload_controller_LogUploadErrorController\n\n\n\n\n\n" {
[app_coronawarn_logupload_controller_LogUploadErrorController]
portin " " as app_coronawarn_logupload_controller_LogUploadErrorController_requires_SPRING_APPLICATION_error
"app_coronawarn_logupload_controller_LogUploadErrorController_requires_SPRING_APPLICATION_error"--[app_coronawarn_logupload_controller_LogUploadErrorController]
}
interface "SPRING-APPLICATION/error" as interface.SPRING_APPLICATION_error
interface.SPRING_APPLICATION_error--"app_coronawarn_logupload_controller_LogUploadErrorController_requires_SPRING_APPLICATION_error"
component "app_coronawarn_logupload_controller_LogUploadPortalController\n\n\n\n\n\n" {
[app_coronawarn_logupload_controller_LogUploadPortalController]
portin " " as app_coronawarn_logupload_controller_LogUploadPortalController_requires_SPRING_APPLICATION_portal_search_POST_
portin " " as app_coronawarn_logupload_controller_LogUploadPortalController_requires_SPRING_APPLICATION_portal_start_GET_
portin " " as app_coronawarn_logupload_controller_LogUploadPortalController_requires_SPRING_APPLICATION_portal_logout_POST_
portin " " as app_coronawarn_logupload_controller_LogUploadPortalController_requires_SPRING_APPLICATION_GET_
"app_coronawarn_logupload_controller_LogUploadPortalController_requires_SPRING_APPLICATION_portal_search_POST_"--[app_coronawarn_logupload_controller_LogUploadPortalController]
"app_coronawarn_logupload_controller_LogUploadPortalController_requires_SPRING_APPLICATION_portal_start_GET_"--[app_coronawarn_logupload_controller_LogUploadPortalController]
"app_coronawarn_logupload_controller_LogUploadPortalController_requires_SPRING_APPLICATION_GET_"--[app_coronawarn_logupload_controller_LogUploadPortalController]
"app_coronawarn_logupload_controller_LogUploadPortalController_requires_SPRING_APPLICATION_portal_logout_POST_"--[app_coronawarn_logupload_controller_LogUploadPortalController]
}
interface "SPRING-APPLICATION/[GET]" as interface.SPRING_APPLICATION_GET_
interface.SPRING_APPLICATION_GET_--"app_coronawarn_logupload_controller_LogUploadPortalController_requires_SPRING_APPLICATION_GET_"
interface "SPRING-APPLICATION/portal/logout[POST]" as interface.SPRING_APPLICATION_portal_logout_POST_
interface.SPRING_APPLICATION_portal_logout_POST_--"app_coronawarn_logupload_controller_LogUploadPortalController_requires_SPRING_APPLICATION_portal_logout_POST_"
interface "SPRING-APPLICATION/portal/search[POST]" as interface.SPRING_APPLICATION_portal_search_POST_
interface.SPRING_APPLICATION_portal_search_POST_--"app_coronawarn_logupload_controller_LogUploadPortalController_requires_SPRING_APPLICATION_portal_search_POST_"
interface "SPRING-APPLICATION/portal/start[GET]" as interface.SPRING_APPLICATION_portal_start_GET_
interface.SPRING_APPLICATION_portal_start_GET_--"app_coronawarn_logupload_controller_LogUploadPortalController_requires_SPRING_APPLICATION_portal_start_GET_"
component "app_coronawarn_logupload_service_OtpService\n\n\n\n\n\n" {
[app_coronawarn_logupload_service_OtpService]
}

@enduml
