@startuml
skinparam fixCircleLabelOverlapping true
component "MainController\n\n\n\n\n\n" {
[com_example_MainController]
[com_example_service_UserService]
[com_example_service_RecommendationClientService]
portin " " as MainController.requires._api
portout " " as MainController.provides._user
portout " " as MainController.provides._newuser
[com_example_MainController]..>[com_example_service_UserService] : requires
[com_example_MainController]..>[com_example_service_RecommendationClientService] : requires
"MainController.requires._api"--[com_example_MainController]
[com_example_service_UserService].."MainController.provides._user"
[com_example_service_UserService].."MainController.provides._newuser"
}
interface "/api" as interface._api
interface._api--"MainController.requires._api"
interface "/user" as interface._user
"MainController.provides._user"..>interface._user : requires
interface "/newuser" as interface._newuser
"MainController.provides._newuser"..>interface._newuser : requires
component "MovieController\n\n\n\n\n\n" {
[com_example_MovieController]
portin " " as MovieController.requires._movie_dummyData
portin " " as MovieController.requires._movie
"MovieController.requires._movie_dummyData"--[com_example_MovieController]
"MovieController.requires._movie"--[com_example_MovieController]
}
interface "/movie/dummyData" as interface._movie_dummyData
interface._movie_dummyData--"MovieController.requires._movie_dummyData"
interface "/movie" as interface._movie
interface._movie--"MovieController.requires._movie"
component "RecommendationController\n\n\n\n\n\n" {
[com_example_RecommendationController]
portin " " as RecommendationController.requires._recommendation_dummyData
portin " " as RecommendationController.requires._recommendation_movie
portin " " as RecommendationController.requires._recommendation_user
portin " " as RecommendationController.requires._recommendation_recommend_user
"RecommendationController.requires._recommendation_user"--[com_example_RecommendationController]
"RecommendationController.requires._recommendation_dummyData"--[com_example_RecommendationController]
"RecommendationController.requires._recommendation_recommend_user"--[com_example_RecommendationController]
"RecommendationController.requires._recommendation_movie"--[com_example_RecommendationController]
}
interface "/recommendation/user" as interface._recommendation_user
interface._recommendation_user--"RecommendationController.requires._recommendation_user"
interface "/recommendation/dummyData" as interface._recommendation_dummyData
interface._recommendation_dummyData--"RecommendationController.requires._recommendation_dummyData"
interface "/recommendation/recommend/user" as interface._recommendation_recommend_user
interface._recommendation_recommend_user--"RecommendationController.requires._recommendation_recommend_user"
interface "/recommendation/movie" as interface._recommendation_movie
interface._recommendation_movie--"RecommendationController.requires._recommendation_movie"
component "UserController\n\n\n\n\n\n" {
[com_example_UserController]
portin " " as UserController.requires._user
"UserController.requires._user"--[com_example_UserController]
}
interface "/user" as interface._user
interface._user--"UserController.requires._user"
interface "/movie" as interface._movie
[com_example_service_MovieService]..>interface._movie : requires
interface "/movie/dummyData" as interface._movie_dummyData
[com_example_service_MovieService]..>interface._movie_dummyData : requires
interface "/recommendation/dummyData" as interface._recommendation_dummyData
[com_example_service_RecommendationService]..>interface._recommendation_dummyData : requires

@enduml
