@startuml
skinparam fixCircleLabelOverlapping true
component "AccountController\n\n\n\n\n\n" {
[com_apssouza_services_AccountServiceImpl]
[com_apssouza_controllers_AccountController]
[com_apssouza_bootstrap_UserLoader]
[com_apssouza_repositories_AccountRepository]
portin " " as AccountController.requires._user_accounts
[com_apssouza_services_AccountServiceImpl]..>[com_apssouza_repositories_AccountRepository] : requires
[com_apssouza_bootstrap_UserLoader]..>[com_apssouza_repositories_AccountRepository] : requires
[com_apssouza_controllers_AccountController]..>[com_apssouza_services_AccountServiceImpl] : requires
"AccountController.requires._user_accounts"--[com_apssouza_controllers_AccountController]
}
interface "/user/accounts" as interface._user_accounts
interface._user_accounts--"AccountController.requires._user_accounts"
component "EmailController\n\n\n\n\n\n" {
[com_apssouza_mailservice_controllers_EmailController]
[com_apssouza_mailservice_repository_EmailRepository]
portin " " as EmailController.requires._mailer_emails_GET_
[com_apssouza_mailservice_controllers_EmailController]..>[com_apssouza_mailservice_repository_EmailRepository] : requires
"EmailController.requires._mailer_emails_GET_"--[com_apssouza_mailservice_controllers_EmailController]
}
interface "/mailer/emails[GET]" as interface._mailer_emails_GET_
interface._mailer_emails_GET_--"EmailController.requires._mailer_emails_GET_"
component "EventSourcingServiceImpl\n\n\n\n\n\n" {
[com_apssouza_eventsourcing_eventstore_EventStoreRepository]
[com_apssouza_eventsourcing_services_EventSourcingServiceImpl]
[com_apssouza_eventsourcing_eventstore_EventSerializer]
[com_apssouza_eventsourcing_services_EventSourcingServiceImpl]..>[com_apssouza_eventsourcing_eventstore_EventStoreRepository] : requires
[com_apssouza_eventsourcing_services_EventSourcingServiceImpl]..>[com_apssouza_eventsourcing_eventstore_EventSerializer] : requires
}
component "NotifyController\n\n\n\n\n\n" {
[com_apssouza_mailservice_controllers_NotifyController]
[com_apssouza_eventsourcing_commands_EmailCommandHandler]
portin " " as NotifyController.requires._mailer_send_email_GET_
[com_apssouza_mailservice_controllers_NotifyController]..>[com_apssouza_eventsourcing_commands_EmailCommandHandler] : requires
"NotifyController.requires._mailer_send_email_GET_"--[com_apssouza_mailservice_controllers_NotifyController]
}
interface "/mailer/send/email[GET]" as interface._mailer_send_email_GET_
interface._mailer_send_email_GET_--"NotifyController.requires._mailer_send_email_GET_"
component "TodoChangesController\n\n\n\n\n\n" {
[com_apssouza_monitors_TodoStoreEventChanges]
[com_apssouza_controllers_TodoChangesController]
portin " " as TodoChangesController.requires._reminder_todo_changes_GET_
[com_apssouza_controllers_TodoChangesController]..>[com_apssouza_monitors_TodoStoreEventChanges] : requires
"TodoChangesController.requires._reminder_todo_changes_GET_"--[com_apssouza_controllers_TodoChangesController]
}
interface "/reminder/todo-changes[GET]" as interface._reminder_todo_changes_GET_
interface._reminder_todo_changes_GET_--"TodoChangesController.requires._reminder_todo_changes_GET_"
component "TodoServiceImpl\n\n\n\n\n\n" {
[TodoServiceImpl]
}
component "TodoServiceStatisticsController\n\n\n\n\n\n" {
[com_apssouza_monitors_TodoServiceMethodInvokedStore]
[com_apssouza_controllers_TodoServiceStatisticsController]
portin " " as TodoServiceStatisticsController.requires._reminder_todo_statistics_GET_
[com_apssouza_controllers_TodoServiceStatisticsController]..>[com_apssouza_monitors_TodoServiceMethodInvokedStore] : requires
"TodoServiceStatisticsController.requires._reminder_todo_statistics_GET_"--[com_apssouza_controllers_TodoServiceStatisticsController]
}
interface "/reminder/todo-statistics[GET]" as interface._reminder_todo_statistics_GET_
interface._reminder_todo_statistics_GET_--"TodoServiceStatisticsController.requires._reminder_todo_statistics_GET_"
component "TodoSocketController\n\n\n\n\n\n" {
[com_apssouza_integrations_socket_TodoSocketController]
}
component "UserController\n\n\n\n\n\n" {
[com_apssouza_infra_EventPublisher]
[com_apssouza_services_TodoServiceImpl]
[com_apssouza_controllers_TodoController]
[com_apssouza_services_UserServiceImpl]
[com_apssouza_controllers_UserController]
portin " " as UserController.requires._api_gateway_accounts
portin " " as UserController.requires._reminder_todos
[com_apssouza_controllers_TodoController]..>[com_apssouza_infra_EventPublisher] : requires
[com_apssouza_controllers_TodoController]..>[com_apssouza_services_TodoServiceImpl] : requires
[com_apssouza_controllers_UserController]..>[com_apssouza_services_TodoServiceImpl] : requires
[com_apssouza_controllers_UserController]..>[com_apssouza_services_UserServiceImpl] : requires
"UserController.requires._api_gateway_accounts"--[com_apssouza_controllers_UserController]
"UserController.requires._reminder_todos"--[com_apssouza_controllers_TodoController]
}
interface "/api-gateway/accounts" as interface._api_gateway_accounts
interface._api_gateway_accounts--"UserController.requires._api_gateway_accounts"
interface "/reminder/todos" as interface._reminder_todos
interface._reminder_todos--"UserController.requires._reminder_todos"
interface "/api-gateway/todos[GET]" as interface._api_gateway_todos_GET_
interface._api_gateway_todos_GET_--[TodoController]
interface "/accounts/search" as interface._accounts_search
[UserClient]..>interface._accounts_search : requires
[UserServiceImpl]
interface "ApplicationListener" as interface.ApplicationListener
interface.ApplicationListener--[com_apssouza_bootstrap_TodoLoader]
[com_apssouza_bootstrap_TodoLoader]..>[com_apssouza_repositories_TodoRepository] : requires
interface "/todos" as interface._todos
[com_apssouza_clients_TodoClient]..>interface._todos : requires
interface "/todos/search" as interface._todos_search
[com_apssouza_clients_TodoClient]..>interface._todos_search : requires
interface "/accounts" as interface._accounts
[com_apssouza_clients_UserClient]..>interface._accounts : requires
interface "/accounts/search" as interface._accounts_search
[com_apssouza_clients_UserClient]..>interface._accounts_search : requires
interface "/users" as interface._users
[com_apssouza_clients_UserClient]..>interface._users : requires
interface "ApplicationContextAware" as interface.ApplicationContextAware
interface.ApplicationContextAware--[com_apssouza_helpers_AutowireHelper]
interface "JpaRepository" as interface.JpaRepository
interface.JpaRepository--[com_apssouza_repositories_AttachmentRepository]
interface "JpaRepository" as interface.JpaRepository
interface.JpaRepository--[com_apssouza_repositories_CategoryRepository]
interface "JpaRepository" as interface.JpaRepository
interface.JpaRepository--[com_apssouza_repositories_TodoRepository]

@enduml
