@startuml
skinparam fixCircleLabelOverlapping true
component "FoodTrayController\n\n\n\n\n\n" {
[com_github_joffryferrater_foodtrayservice_repository_PriceServiceRepository]
[com_github_joffryferrater_foodtrayservice_FoodTrayController]
[com_github_joffryferrater_foodtrayservice_repository_ItemServiceRepository]
[com_github_joffryferrater_foodtrayservice_repository_ItemServiceFallback]
portin " " as FoodTrayController.requires._foodtray_service_foodtrays
portout " " as FoodTrayController.provides._items_search_findByItemCode_itemCode_
portout " " as FoodTrayController.provides._prices_search_findByItemCode_itemCode_
[com_github_joffryferrater_foodtrayservice_FoodTrayController]..>[com_github_joffryferrater_foodtrayservice_repository_ItemServiceRepository] : requires
[com_github_joffryferrater_foodtrayservice_FoodTrayController]..>[com_github_joffryferrater_foodtrayservice_repository_ItemServiceFallback] : requires
[com_github_joffryferrater_foodtrayservice_FoodTrayController]..>[com_github_joffryferrater_foodtrayservice_repository_PriceServiceRepository] : requires
"FoodTrayController.requires._foodtray_service_foodtrays"--[com_github_joffryferrater_foodtrayservice_FoodTrayController]
[com_github_joffryferrater_foodtrayservice_repository_ItemServiceRepository].."FoodTrayController.provides._items_search_findByItemCode_itemCode_"
[com_github_joffryferrater_foodtrayservice_repository_PriceServiceRepository].."FoodTrayController.provides._prices_search_findByItemCode_itemCode_"
}
interface "/foodtray-service/foodtrays" as interface._foodtray_service_foodtrays
interface._foodtray_service_foodtrays--"FoodTrayController.requires._foodtray_service_foodtrays"
interface "/items/search/findByItemCode?itemCode=" as interface._items_search_findByItemCode_itemCode_
"FoodTrayController.provides._items_search_findByItemCode_itemCode_"..>interface._items_search_findByItemCode_itemCode_ : requires
interface "/prices/search/findByItemCode?itemCode=" as interface._prices_search_findByItemCode_itemCode_
"FoodTrayController.provides._prices_search_findByItemCode_itemCode_"..>interface._prices_search_findByItemCode_itemCode_ : requires
component "TrayItemService\n\n\n\n\n\n" {
[com_github_joffryferrater_foodtrayservice_service_TrayItemService]
}
interface "CrudRepository" as interface.CrudRepository
interface.CrudRepository--[com_github_joffryferrater_accountservice_models_AccountRepository]
interface "CrudRepository" as interface.CrudRepository
interface.CrudRepository--[com_github_joffryferrater_customerservice_models_CustomerRepository]
interface "CrudRepository" as interface.CrudRepository
interface.CrudRepository--[com_github_joffryferrater_itemservice_models_ItemRepository]
interface "CrudRepository" as interface.CrudRepository
interface.CrudRepository--[com_github_joffryferrater_priceservice_models_PriceRepository]
interface "CrudRepository" as interface.CrudRepository
interface.CrudRepository--[com_github_joffryferrater_storeservice_models_StoreRepository]

@enduml
