@startuml
skinparam fixCircleLabelOverlapping true
component "CartService\n\n\n\n\n\n" {
[io_github_georgwittberger_microserviceexample_cartservice_cart_CartService]
[io_github_georgwittberger_microserviceexample_cartservice_web_CartController]
portin " " as CartService.requires.__GET_
portin " " as CartService.requires._count_GET_
portin " " as CartService.requires._add_GET_
[io_github_georgwittberger_microserviceexample_cartservice_web_CartController]..>[io_github_georgwittberger_microserviceexample_cartservice_cart_CartService] : requires
"CartService.requires.__GET_"--[io_github_georgwittberger_microserviceexample_cartservice_web_CartController]
"CartService.requires._add_GET_"--[io_github_georgwittberger_microserviceexample_cartservice_web_CartController]
"CartService.requires._count_GET_"--[io_github_georgwittberger_microserviceexample_cartservice_web_CartController]
}
interface "/[GET]" as interface.__GET_
interface.__GET_--"CartService.requires.__GET_"
interface "/add[GET]" as interface._add_GET_
interface._add_GET_--"CartService.requires._add_GET_"
interface "/count[GET]" as interface._count_GET_
interface._count_GET_--"CartService.requires._count_GET_"
component "ContentController\n\n\n\n\n\n" {
[io_github_georgwittberger_microserviceexample_contentservice_web_ContentController]
portin " " as ContentController.requires.__GET_
"ContentController.requires.__GET_"--[io_github_georgwittberger_microserviceexample_contentservice_web_ContentController]
}
interface "/[GET]" as interface.__GET_
interface.__GET_--"ContentController.requires.__GET_"
component "ProductController\n\n\n\n\n\n" {
[io_github_georgwittberger_microserviceexample_productservice_web_ProductController]
[io_github_georgwittberger_microserviceexample_productservice_product_ProductService]
portin " " as ProductController.requires.__GET_
[io_github_georgwittberger_microserviceexample_productservice_web_ProductController]..>[io_github_georgwittberger_microserviceexample_productservice_product_ProductService] : requires
"ProductController.requires.__GET_"--[io_github_georgwittberger_microserviceexample_productservice_web_ProductController]
}
interface "/[GET]" as interface.__GET_
interface.__GET_--"ProductController.requires.__GET_"

@enduml
