@startuml
skinparam fixCircleLabelOverlapping true
interface "com_acmeair_service_BookingService" as interface.com_acmeair_service_BookingService
[com_acmeair_config_AcmeAirConfiguration]..>interface.com_acmeair_service_BookingService : requires
interface "com_acmeair_entities_AirportCodeMapping" as interface.com_acmeair_entities_AirportCodeMapping
interface.com_acmeair_entities_AirportCodeMapping--[com_acmeair_morphia_entities_AirportCodeMappingImpl]
interface "com_acmeair_entities_Booking" as interface.com_acmeair_entities_Booking
interface.com_acmeair_entities_Booking--[com_acmeair_morphia_entities_BookingImpl]
interface "com_acmeair_entities_CustomerAddress" as interface.com_acmeair_entities_CustomerAddress
interface.com_acmeair_entities_CustomerAddress--[com_acmeair_morphia_entities_CustomerAddressImpl]
interface "com_acmeair_entities_Customer" as interface.com_acmeair_entities_Customer
interface.com_acmeair_entities_Customer--[com_acmeair_morphia_entities_CustomerImpl]
interface "com_acmeair_entities_CustomerAddress" as interface.com_acmeair_entities_CustomerAddress
[com_acmeair_morphia_entities_CustomerImpl]..>interface.com_acmeair_entities_CustomerAddress : requires
interface "com_acmeair_entities_CustomerSession" as interface.com_acmeair_entities_CustomerSession
interface.com_acmeair_entities_CustomerSession--[com_acmeair_morphia_entities_CustomerSessionImpl]
interface "com_acmeair_entities_Flight" as interface.com_acmeair_entities_Flight
interface.com_acmeair_entities_Flight--[com_acmeair_morphia_entities_FlightImpl]
interface "com_acmeair_entities_FlightSegment" as interface.com_acmeair_entities_FlightSegment
[com_acmeair_morphia_entities_FlightImpl]..>interface.com_acmeair_entities_FlightSegment : requires
interface "com_acmeair_entities_FlightSegment" as interface.com_acmeair_entities_FlightSegment
interface.com_acmeair_entities_FlightSegment--[com_acmeair_morphia_entities_FlightSegmentImpl]
interface "com_acmeair_service_BookingService" as interface.com_acmeair_service_BookingService
interface.com_acmeair_service_BookingService--[com_acmeair_morphia_services_BookingServiceImpl]
interface "com_acmeair_service_BookingService" as interface.com_acmeair_service_BookingService
[com_acmeair_web_BookingsREST]..>interface.com_acmeair_service_BookingService : requires
interface "com_acmeair_service_TransactionService" as interface.com_acmeair_service_TransactionService
[com_acmeair_web_RESTCookieSessionFilter]..>interface.com_acmeair_service_TransactionService : requires
interface "com_acmeair_entities_AirportCodeMapping" as interface.com_acmeair_entities_AirportCodeMapping
interface.com_acmeair_entities_AirportCodeMapping--[com_acmeair_wxs_entities_AirportCodeMappingImpl]
interface "com_acmeair_entities_Booking" as interface.com_acmeair_entities_Booking
interface.com_acmeair_entities_Booking--[com_acmeair_wxs_entities_BookingImpl]
interface "com_acmeair_entities_Customer" as interface.com_acmeair_entities_Customer
[com_acmeair_wxs_entities_BookingImpl]..>interface.com_acmeair_entities_Customer : requires
interface "com_acmeair_entities_Flight" as interface.com_acmeair_entities_Flight
[com_acmeair_wxs_entities_BookingImpl]..>interface.com_acmeair_entities_Flight : requires
interface "com_acmeair_entities_BookingPK" as interface.com_acmeair_entities_BookingPK
interface.com_acmeair_entities_BookingPK--[com_acmeair_wxs_entities_BookingPKImpl]
interface "com_acmeair_entities_CustomerAddress" as interface.com_acmeair_entities_CustomerAddress
interface.com_acmeair_entities_CustomerAddress--[com_acmeair_wxs_entities_CustomerAddressImpl]
interface "com_acmeair_entities_Customer" as interface.com_acmeair_entities_Customer
interface.com_acmeair_entities_Customer--[com_acmeair_wxs_entities_CustomerImpl]
interface "com_acmeair_entities_CustomerAddress" as interface.com_acmeair_entities_CustomerAddress
[com_acmeair_wxs_entities_CustomerImpl]..>interface.com_acmeair_entities_CustomerAddress : requires
interface "com_acmeair_entities_CustomerSession" as interface.com_acmeair_entities_CustomerSession
interface.com_acmeair_entities_CustomerSession--[com_acmeair_wxs_entities_CustomerSessionImpl]
interface "com_acmeair_entities_Flight" as interface.com_acmeair_entities_Flight
interface.com_acmeair_entities_Flight--[com_acmeair_wxs_entities_FlightImpl]
interface "com_acmeair_entities_FlightSegment" as interface.com_acmeair_entities_FlightSegment
[com_acmeair_wxs_entities_FlightImpl]..>interface.com_acmeair_entities_FlightSegment : requires
interface "com_acmeair_entities_FlightSegment" as interface.com_acmeair_entities_FlightSegment
interface.com_acmeair_entities_FlightSegment--[com_acmeair_wxs_entities_FlightSegmentImpl]
interface "com_acmeair_service_BookingService" as interface.com_acmeair_service_BookingService
interface.com_acmeair_service_BookingService--[com_acmeair_wxs_service_BookingServiceImpl]
interface "com_acmeair_service_TransactionService" as interface.com_acmeair_service_TransactionService
interface.com_acmeair_service_TransactionService--[com_acmeair_wxs_utils_WXSSessionManager]

@enduml
