@startuml
skinparam fixCircleLabelOverlapping true
skinparam componentStyle uml2
component "com_dailycodebuffer_cloud_gateway_FallBackMethodController\n\n\n\n\n\n" {
[com_dailycodebuffer_cloud_gateway_FallBackMethodController]
portin " " as com_dailycodebuffer_cloud_gateway_FallBackMethodController_requires_SPRING_APPLICATION_userServiceFallBack_GET_
portin " " as com_dailycodebuffer_cloud_gateway_FallBackMethodController_requires_SPRING_APPLICATION_departmentServiceFallBack_GET_
"com_dailycodebuffer_cloud_gateway_FallBackMethodController_requires_SPRING_APPLICATION_userServiceFallBack_GET_"--[com_dailycodebuffer_cloud_gateway_FallBackMethodController]
"com_dailycodebuffer_cloud_gateway_FallBackMethodController_requires_SPRING_APPLICATION_departmentServiceFallBack_GET_"--[com_dailycodebuffer_cloud_gateway_FallBackMethodController]
}
interface "SPRING-APPLICATION/departmentServiceFallBack[GET]" as interface.SPRING_APPLICATION_departmentServiceFallBack_GET_
interface.SPRING_APPLICATION_departmentServiceFallBack_GET_--"com_dailycodebuffer_cloud_gateway_FallBackMethodController_requires_SPRING_APPLICATION_departmentServiceFallBack_GET_"
interface "SPRING-APPLICATION/userServiceFallBack[GET]" as interface.SPRING_APPLICATION_userServiceFallBack_GET_
interface.SPRING_APPLICATION_userServiceFallBack_GET_--"com_dailycodebuffer_cloud_gateway_FallBackMethodController_requires_SPRING_APPLICATION_userServiceFallBack_GET_"
component "com_dailycodebuffer_department\n\n\n\n\n\n" {
[com_dailycodebuffer_department_repository_DepartmentRepository]
[com_dailycodebuffer_department_service_DepartmentService]
[com_dailycodebuffer_department_controller_DepartmentController]
portin " " as com_dailycodebuffer_department_requires_SPRING_APPLICATION_departments_GET_POST_
[com_dailycodebuffer_department_controller_DepartmentController]..>[com_dailycodebuffer_department_service_DepartmentService] : requires
[com_dailycodebuffer_department_service_DepartmentService]..>[com_dailycodebuffer_department_repository_DepartmentRepository] : requires
"com_dailycodebuffer_department_requires_SPRING_APPLICATION_departments_GET_POST_"--[com_dailycodebuffer_department_controller_DepartmentController]
}
interface "SPRING-APPLICATION/departments[GET,POST]" as interface.SPRING_APPLICATION_departments_GET_POST_
interface.SPRING_APPLICATION_departments_GET_POST_--"com_dailycodebuffer_department_requires_SPRING_APPLICATION_departments_GET_POST_"
component "com_dailycodebuffer_user\n\n\n\n\n\n" {
[com_dailycodebuffer_user_controller_UserController]
[com_dailycodebuffer_user_repository_UserRepository]
[com_dailycodebuffer_user_service_UserService]
portin " " as com_dailycodebuffer_user_requires_SPRING_APPLICATION_users_GET_POST_
[com_dailycodebuffer_user_service_UserService]..>[com_dailycodebuffer_user_repository_UserRepository] : requires
[com_dailycodebuffer_user_controller_UserController]..>[com_dailycodebuffer_user_service_UserService] : requires
"com_dailycodebuffer_user_requires_SPRING_APPLICATION_users_GET_POST_"--[com_dailycodebuffer_user_controller_UserController]
}
interface "SPRING-APPLICATION/users[GET,POST]" as interface.SPRING_APPLICATION_users_GET_POST_
interface.SPRING_APPLICATION_users_GET_POST_--"com_dailycodebuffer_user_requires_SPRING_APPLICATION_users_GET_POST_"
interface "com_dailycodebuffer_user_service_RestTemplate" as interface.com_dailycodebuffer_user_service_RestTemplate
interface.com_dailycodebuffer_user_service_RestTemplate--[com_dailycodebuffer_user_service_RestTemplate_Provider]

@enduml
