@startuml
skinparam fixCircleLabelOverlapping true
skinparam componentStyle uml2
component "app_coronawarn\n\n\n\n\n\n" {
[app_coronawarn_datadonation_common_persistence_service_OtpService]
[app_coronawarn_logupload_service_OtpService]
[app_coronawarn_datadonation_services_edus_otp_GenerateOtpController]
portin " " as app_coronawarn_requires_SPRING_APPLICATION_gen_otp_GET_
[app_coronawarn_datadonation_services_edus_otp_GenerateOtpController]..>[app_coronawarn_datadonation_common_persistence_service_OtpService] : requires
"app_coronawarn_requires_SPRING_APPLICATION_gen_otp_GET_"--[app_coronawarn_datadonation_services_edus_otp_GenerateOtpController]
}
interface "SPRING-APPLICATION/gen/otp[GET]" as interface.SPRING_APPLICATION_gen_otp_GET_
interface.SPRING_APPLICATION_gen_otp_GET_--"app_coronawarn_requires_SPRING_APPLICATION_gen_otp_GET_"
component "app_coronawarn 2\n\n\n\n\n\n" {
[app_coronawarn_server_services_submission_controller_FakeRequestController]
[app_coronawarn_datadonation_services_ppac_commons_FakeRequestController]
portin " " as app_coronawarn_2_requires_SPRING_APPLICATION_POST_
portin " " as app_coronawarn_2_requires_SPRING_APPLICATION_version_v1_diagnosis_keys_POST_
"app_coronawarn_2_requires_SPRING_APPLICATION_POST_"--[app_coronawarn_datadonation_services_ppac_commons_FakeRequestController]
"app_coronawarn_2_requires_SPRING_APPLICATION_version_v1_diagnosis_keys_POST_"--[app_coronawarn_server_services_submission_controller_FakeRequestController]
}
interface "SPRING-APPLICATION/[POST]" as interface.SPRING_APPLICATION_POST_
interface.SPRING_APPLICATION_POST_--"app_coronawarn_2_requires_SPRING_APPLICATION_POST_"
interface "SPRING-APPLICATION/version/v1/diagnosis-keys[POST]" as interface.SPRING_APPLICATION_version_v1_diagnosis_keys_POST_
interface.SPRING_APPLICATION_version_v1_diagnosis_keys_POST_--"app_coronawarn_2_requires_SPRING_APPLICATION_version_v1_diagnosis_keys_POST_"
component "app_coronawarn_datadonation\n\n\n\n\n\n" {
[app_coronawarn_datadonation_services_ppac_ios_verification_devicetoken_DeviceTokenService]
[app_coronawarn_datadonation_common_persistence_repository_DeviceTokenRepository]
[app_coronawarn_datadonation_services_ppac_ios_verification_devicetoken_DeviceTokenService]..>[app_coronawarn_datadonation_common_persistence_repository_DeviceTokenRepository] : requires
}
component "app_coronawarn_datadonation 2\n\n\n\n\n\n" {
[app_coronawarn_datadonation_services_ppac_android_controller_DeleteSaltController]
[app_coronawarn_datadonation_common_persistence_repository_ppac_android_SaltRepository]
[app_coronawarn_datadonation_common_persistence_service_SaltService]
portin " " as app_coronawarn_datadonation_2_requires_SPRING_APPLICATION_delete_DELETE_
[app_coronawarn_datadonation_common_persistence_service_SaltService]..>[app_coronawarn_datadonation_common_persistence_repository_ppac_android_SaltRepository] : requires
[app_coronawarn_datadonation_services_ppac_android_controller_DeleteSaltController]..>[app_coronawarn_datadonation_common_persistence_service_SaltService] : requires
"app_coronawarn_datadonation_2_requires_SPRING_APPLICATION_delete_DELETE_"--[app_coronawarn_datadonation_services_ppac_android_controller_DeleteSaltController]
}
interface "SPRING-APPLICATION/delete[DELETE]" as interface.SPRING_APPLICATION_delete_DELETE_
interface.SPRING_APPLICATION_delete_DELETE_--"app_coronawarn_datadonation_2_requires_SPRING_APPLICATION_delete_DELETE_"
component "app_coronawarn_datadonation 3\n\n\n\n\n\n" {
[app_coronawarn_datadonation_services_ppac_otp_GenerateSrsOtpController]
[app_coronawarn_datadonation_common_persistence_service_SrsOtpService]
portin " " as app_coronawarn_datadonation_3_requires_SPRING_APPLICATION_gen_srs_GET_
[app_coronawarn_datadonation_services_ppac_otp_GenerateSrsOtpController]..>[app_coronawarn_datadonation_common_persistence_service_SrsOtpService] : requires
"app_coronawarn_datadonation_3_requires_SPRING_APPLICATION_gen_srs_GET_"--[app_coronawarn_datadonation_services_ppac_otp_GenerateSrsOtpController]
}
interface "SPRING-APPLICATION/gen/srs[GET]" as interface.SPRING_APPLICATION_gen_srs_GET_
interface.SPRING_APPLICATION_gen_srs_GET_--"app_coronawarn_datadonation_3_requires_SPRING_APPLICATION_gen_srs_GET_"
component "app_coronawarn_datadonation 4\n\n\n\n\n\n" {
[app_coronawarn_datadonation_services_els_otp_GenerateElsOtpController]
[app_coronawarn_datadonation_common_persistence_service_ElsOtpService]
portin " " as app_coronawarn_datadonation_4_requires_SPRING_APPLICATION_gen_els_GET_
[app_coronawarn_datadonation_services_els_otp_GenerateElsOtpController]..>[app_coronawarn_datadonation_common_persistence_service_ElsOtpService] : requires
"app_coronawarn_datadonation_4_requires_SPRING_APPLICATION_gen_els_GET_"--[app_coronawarn_datadonation_services_els_otp_GenerateElsOtpController]
}
interface "SPRING-APPLICATION/gen/els[GET]" as interface.SPRING_APPLICATION_gen_els_GET_
interface.SPRING_APPLICATION_gen_els_GET_--"app_coronawarn_datadonation_4_requires_SPRING_APPLICATION_gen_els_GET_"
component "app_coronawarn_datadonation 5\n\n\n\n\n\n" {
[app_coronawarn_datadonation_services_ppac_android_attestation_TestSrsRateLimitVerificationStrategy]
[app_coronawarn_datadonation_common_persistence_repository_AndroidIdRepository]
[app_coronawarn_datadonation_services_ppac_android_controller_PpaDataRequestAndroidConverter]
[app_coronawarn_datadonation_common_persistence_service_AndroidIdService]
[app_coronawarn_datadonation_services_ppac_android_attestation_ProdSrsRateLimitVerificationStrategy]
[app_coronawarn_datadonation_services_ppac_android_controller_AndroidController]
[app_coronawarn_datadonation_services_ppac_android_attestation_DeviceAttestationVerifier]
[app_coronawarn_datadonation_services_ppac_android_controller_validation_PpaDataRequestAndroidValidator]
[app_coronawarn_datadonation_services_ppac_android_attestation_ProdAndroidIdVerificationStrategy]
portin " " as app_coronawarn_datadonation_5_requires_SPRING_APPLICATION_dat_POST_
portin " " as app_coronawarn_datadonation_5_requires_SPRING_APPLICATION_els_POST_2
portin " " as app_coronawarn_datadonation_5_requires_SPRING_APPLICATION_srs_POST_2
portin " " as app_coronawarn_datadonation_5_requires_SPRING_APPLICATION_otp_POST_3
[app_coronawarn_datadonation_common_persistence_service_AndroidIdService]..>[app_coronawarn_datadonation_common_persistence_repository_AndroidIdRepository] : requires
[app_coronawarn_datadonation_services_ppac_android_controller_AndroidController]..>[app_coronawarn_datadonation_services_ppac_android_attestation_TestSrsRateLimitVerificationStrategy] : requires
[app_coronawarn_datadonation_services_ppac_android_controller_AndroidController]..>[app_coronawarn_datadonation_services_ppac_android_controller_validation_PpaDataRequestAndroidValidator] : requires
[app_coronawarn_datadonation_services_ppac_android_controller_AndroidController]..>[app_coronawarn_datadonation_services_ppac_android_attestation_ProdSrsRateLimitVerificationStrategy] : requires
[app_coronawarn_datadonation_services_ppac_android_controller_AndroidController]..>[app_coronawarn_datadonation_services_ppac_android_attestation_ProdAndroidIdVerificationStrategy] : requires
[app_coronawarn_datadonation_services_ppac_android_controller_AndroidController]..>[app_coronawarn_datadonation_services_ppac_android_attestation_DeviceAttestationVerifier] : requires
[app_coronawarn_datadonation_services_ppac_android_controller_AndroidController]..>[app_coronawarn_datadonation_common_persistence_service_AndroidIdService] : requires
[app_coronawarn_datadonation_services_ppac_android_controller_AndroidController]..>[app_coronawarn_datadonation_services_ppac_android_controller_PpaDataRequestAndroidConverter] : requires
"app_coronawarn_datadonation_5_requires_SPRING_APPLICATION_srs_POST_2"--[app_coronawarn_datadonation_services_ppac_android_controller_AndroidController]
"app_coronawarn_datadonation_5_requires_SPRING_APPLICATION_otp_POST_3"--[app_coronawarn_datadonation_services_ppac_android_controller_AndroidController]
"app_coronawarn_datadonation_5_requires_SPRING_APPLICATION_els_POST_2"--[app_coronawarn_datadonation_services_ppac_android_controller_AndroidController]
"app_coronawarn_datadonation_5_requires_SPRING_APPLICATION_dat_POST_"--[app_coronawarn_datadonation_services_ppac_android_controller_AndroidController]
}
interface "SPRING-APPLICATION/dat[POST]" as interface.SPRING_APPLICATION_dat_POST_
interface.SPRING_APPLICATION_dat_POST_--"app_coronawarn_datadonation_5_requires_SPRING_APPLICATION_dat_POST_"
interface "SPRING-APPLICATION/els[POST]$2" as interface.SPRING_APPLICATION_els_POST_2
interface.SPRING_APPLICATION_els_POST_2--"app_coronawarn_datadonation_5_requires_SPRING_APPLICATION_els_POST_2"
interface "SPRING-APPLICATION/otp[POST]$3" as interface.SPRING_APPLICATION_otp_POST_3
interface.SPRING_APPLICATION_otp_POST_3--"app_coronawarn_datadonation_5_requires_SPRING_APPLICATION_otp_POST_3"
interface "SPRING-APPLICATION/srs[POST]$2" as interface.SPRING_APPLICATION_srs_POST_2
interface.SPRING_APPLICATION_srs_POST_2--"app_coronawarn_datadonation_5_requires_SPRING_APPLICATION_srs_POST_2"
component "app_coronawarn_datadonation_common_persistence\n\n\n\n\n\n" {
[app_coronawarn_datadonation_common_persistence_repository_metrics_ExposureRiskMetadataRepository]
[app_coronawarn_datadonation_common_persistence_repository_metrics_SummarizedExposureWindowsWithUserMetadataRepository]
[app_coronawarn_datadonation_common_persistence_repository_metrics_ClientMetadataRepository]
[app_coronawarn_datadonation_common_persistence_repository_metrics_KeySubmissionMetadataWithUserMetadataRepository]
[app_coronawarn_datadonation_common_persistence_repository_metrics_ExposureWindowTestResultsRepository]
[app_coronawarn_datadonation_common_persistence_service_PpaDataService]
[app_coronawarn_datadonation_common_persistence_repository_metrics_UserMetadataRepository]
[app_coronawarn_datadonation_common_persistence_repository_metrics_KeySubmissionMetadataWithClientMetadataRepository]
[app_coronawarn_datadonation_common_persistence_repository_metrics_ExposureWindowRepository]
[app_coronawarn_datadonation_common_persistence_repository_metrics_TestResultMetadataRepository]
[app_coronawarn_datadonation_common_persistence_service_PpaDataService]..>[app_coronawarn_datadonation_common_persistence_repository_metrics_ExposureWindowRepository] : requires
[app_coronawarn_datadonation_common_persistence_service_PpaDataService]..>[app_coronawarn_datadonation_common_persistence_repository_metrics_ExposureRiskMetadataRepository] : requires
[app_coronawarn_datadonation_common_persistence_service_PpaDataService]..>[app_coronawarn_datadonation_common_persistence_repository_metrics_UserMetadataRepository] : requires
[app_coronawarn_datadonation_common_persistence_service_PpaDataService]..>[app_coronawarn_datadonation_common_persistence_repository_metrics_KeySubmissionMetadataWithClientMetadataRepository] : requires
[app_coronawarn_datadonation_common_persistence_service_PpaDataService]..>[app_coronawarn_datadonation_common_persistence_repository_metrics_ClientMetadataRepository] : requires
[app_coronawarn_datadonation_common_persistence_service_PpaDataService]..>[app_coronawarn_datadonation_common_persistence_repository_metrics_TestResultMetadataRepository] : requires
[app_coronawarn_datadonation_common_persistence_service_PpaDataService]..>[app_coronawarn_datadonation_common_persistence_repository_metrics_ExposureWindowTestResultsRepository] : requires
[app_coronawarn_datadonation_common_persistence_service_PpaDataService]..>[app_coronawarn_datadonation_common_persistence_repository_metrics_SummarizedExposureWindowsWithUserMetadataRepository] : requires
[app_coronawarn_datadonation_common_persistence_service_PpaDataService]..>[app_coronawarn_datadonation_common_persistence_repository_metrics_KeySubmissionMetadataWithUserMetadataRepository] : requires
}
component "app_coronawarn_datadonation_services_edus_otp_OtpController\n\n\n\n\n\n" {
[app_coronawarn_datadonation_services_edus_otp_OtpController]
portin " " as app_coronawarn_datadonation_services_edus_otp_OtpController_requires_SPRING_APPLICATION_otp_POST_
"app_coronawarn_datadonation_services_edus_otp_OtpController_requires_SPRING_APPLICATION_otp_POST_"--[app_coronawarn_datadonation_services_edus_otp_OtpController]
}
interface "SPRING-APPLICATION/otp[POST]" as interface.SPRING_APPLICATION_otp_POST_
interface.SPRING_APPLICATION_otp_POST_--"app_coronawarn_datadonation_services_edus_otp_OtpController_requires_SPRING_APPLICATION_otp_POST_"
component "app_coronawarn_datadonation_services_els_otp_ElsOtpController\n\n\n\n\n\n" {
[app_coronawarn_datadonation_services_els_otp_ElsOtpController]
portin " " as app_coronawarn_datadonation_services_els_otp_ElsOtpController_requires_SPRING_APPLICATION_els_POST_3
"app_coronawarn_datadonation_services_els_otp_ElsOtpController_requires_SPRING_APPLICATION_els_POST_3"--[app_coronawarn_datadonation_services_els_otp_ElsOtpController]
}
interface "SPRING-APPLICATION/els[POST]$3" as interface.SPRING_APPLICATION_els_POST_3
interface.SPRING_APPLICATION_els_POST_3--"app_coronawarn_datadonation_services_els_otp_ElsOtpController_requires_SPRING_APPLICATION_els_POST_3"
component "app_coronawarn_datadonation_services_ppac_ios\n\n\n\n\n\n" {
[app_coronawarn_datadonation_services_ppac_ios_controller_IosController]
[app_coronawarn_datadonation_services_ppac_ios_controller_PpaDataRequestIosConverter]
[app_coronawarn_datadonation_services_ppac_ios_verification_PpacProcessor]
portin " " as app_coronawarn_datadonation_services_ppac_ios_requires_SPRING_APPLICATION_srs_POST_3
portin " " as app_coronawarn_datadonation_services_ppac_ios_requires_SPRING_APPLICATION_otp_POST_2
portin " " as app_coronawarn_datadonation_services_ppac_ios_requires_SPRING_APPLICATION_dat_POST_2
portin " " as app_coronawarn_datadonation_services_ppac_ios_requires_SPRING_APPLICATION_els_POST_
[app_coronawarn_datadonation_services_ppac_ios_controller_IosController]..>[app_coronawarn_datadonation_services_ppac_ios_controller_PpaDataRequestIosConverter] : requires
[app_coronawarn_datadonation_services_ppac_ios_controller_IosController]..>[app_coronawarn_datadonation_services_ppac_ios_verification_PpacProcessor] : requires
"app_coronawarn_datadonation_services_ppac_ios_requires_SPRING_APPLICATION_otp_POST_2"--[app_coronawarn_datadonation_services_ppac_ios_controller_IosController]
"app_coronawarn_datadonation_services_ppac_ios_requires_SPRING_APPLICATION_dat_POST_2"--[app_coronawarn_datadonation_services_ppac_ios_controller_IosController]
"app_coronawarn_datadonation_services_ppac_ios_requires_SPRING_APPLICATION_els_POST_"--[app_coronawarn_datadonation_services_ppac_ios_controller_IosController]
"app_coronawarn_datadonation_services_ppac_ios_requires_SPRING_APPLICATION_srs_POST_3"--[app_coronawarn_datadonation_services_ppac_ios_controller_IosController]
}
interface "SPRING-APPLICATION/dat[POST]$2" as interface.SPRING_APPLICATION_dat_POST_2
interface.SPRING_APPLICATION_dat_POST_2--"app_coronawarn_datadonation_services_ppac_ios_requires_SPRING_APPLICATION_dat_POST_2"
interface "SPRING-APPLICATION/els[POST]" as interface.SPRING_APPLICATION_els_POST_
interface.SPRING_APPLICATION_els_POST_--"app_coronawarn_datadonation_services_ppac_ios_requires_SPRING_APPLICATION_els_POST_"
interface "SPRING-APPLICATION/otp[POST]$2" as interface.SPRING_APPLICATION_otp_POST_2
interface.SPRING_APPLICATION_otp_POST_2--"app_coronawarn_datadonation_services_ppac_ios_requires_SPRING_APPLICATION_otp_POST_2"
interface "SPRING-APPLICATION/srs[POST]$3" as interface.SPRING_APPLICATION_srs_POST_3
interface.SPRING_APPLICATION_srs_POST_3--"app_coronawarn_datadonation_services_ppac_ios_requires_SPRING_APPLICATION_srs_POST_3"
component "app_coronawarn_datadonation_services_srs_otp_SrsOtpController\n\n\n\n\n\n" {
[app_coronawarn_datadonation_services_srs_otp_SrsOtpController]
portin " " as app_coronawarn_datadonation_services_srs_otp_SrsOtpController_requires_SPRING_APPLICATION_srs_POST_
"app_coronawarn_datadonation_services_srs_otp_SrsOtpController_requires_SPRING_APPLICATION_srs_POST_"--[app_coronawarn_datadonation_services_srs_otp_SrsOtpController]
}
interface "SPRING-APPLICATION/srs[POST]" as interface.SPRING_APPLICATION_srs_POST_
interface.SPRING_APPLICATION_srs_POST_--"app_coronawarn_datadonation_services_srs_otp_SrsOtpController_requires_SPRING_APPLICATION_srs_POST_"
component "app_coronawarn_dcc\n\n\n\n\n\n" {
[app_coronawarn_dcc_service_DccRegistrationCleanupService]
[app_coronawarn_dcc_service_DccRegistrationService]
[app_coronawarn_dcc_repository_DccRegistrationRepository]
[app_coronawarn_dcc_service_DccRegistrationService]..>[app_coronawarn_dcc_repository_DccRegistrationRepository] : requires
[app_coronawarn_dcc_service_DccRegistrationCleanupService]..>[app_coronawarn_dcc_repository_DccRegistrationRepository] : requires
}
component "app_coronawarn_dcc 2\n\n\n\n\n\n" {
[app_coronawarn_dcc_repository_LabIdClaimRepository]
[app_coronawarn_dcc_service_LabIdClaimService]
[app_coronawarn_dcc_service_LabIdClaimCleanupService]
[app_coronawarn_dcc_service_LabIdClaimService]..>[app_coronawarn_dcc_repository_LabIdClaimRepository] : requires
[app_coronawarn_dcc_service_LabIdClaimCleanupService]..>[app_coronawarn_dcc_repository_LabIdClaimRepository] : requires
}
component "app_coronawarn_dcc_controller_ExternalDccClaimController\n\n\n\n\n\n" {
[app_coronawarn_dcc_controller_ExternalDccClaimController]
portin " " as app_coronawarn_dcc_controller_ExternalDccClaimController_requires_SPRING_APPLICATION_version_v1_dcc_POST_
"app_coronawarn_dcc_controller_ExternalDccClaimController_requires_SPRING_APPLICATION_version_v1_dcc_POST_"--[app_coronawarn_dcc_controller_ExternalDccClaimController]
}
interface "SPRING-APPLICATION/version/v1/dcc[POST]" as interface.SPRING_APPLICATION_version_v1_dcc_POST_
interface.SPRING_APPLICATION_version_v1_dcc_POST_--"app_coronawarn_dcc_controller_ExternalDccClaimController_requires_SPRING_APPLICATION_version_v1_dcc_POST_"
component "app_coronawarn_dcc_controller_ExternalPublicKeyController\n\n\n\n\n\n" {
[app_coronawarn_dcc_controller_ExternalPublicKeyController]
portin " " as app_coronawarn_dcc_controller_ExternalPublicKeyController_requires_SPRING_APPLICATION_version_v1_publicKey_POST_
"app_coronawarn_dcc_controller_ExternalPublicKeyController_requires_SPRING_APPLICATION_version_v1_publicKey_POST_"--[app_coronawarn_dcc_controller_ExternalPublicKeyController]
}
interface "SPRING-APPLICATION/version/v1/publicKey[POST]" as interface.SPRING_APPLICATION_version_v1_publicKey_POST_
interface.SPRING_APPLICATION_version_v1_publicKey_POST_--"app_coronawarn_dcc_controller_ExternalPublicKeyController_requires_SPRING_APPLICATION_version_v1_publicKey_POST_"
component "app_coronawarn_dcc_controller_InternalDccController\n\n\n\n\n\n" {
[app_coronawarn_dcc_controller_InternalDccController]
portin " " as app_coronawarn_dcc_controller_InternalDccController_requires_SPRING_APPLICATION_version_v1_test_dcc_POST_
"app_coronawarn_dcc_controller_InternalDccController_requires_SPRING_APPLICATION_version_v1_test_dcc_POST_"--[app_coronawarn_dcc_controller_InternalDccController]
}
interface "SPRING-APPLICATION/version/v1/test/*/dcc[POST]" as interface.SPRING_APPLICATION_version_v1_test_dcc_POST_
interface.SPRING_APPLICATION_version_v1_test_dcc_POST_--"app_coronawarn_dcc_controller_InternalDccController_requires_SPRING_APPLICATION_version_v1_test_dcc_POST_"
component "app_coronawarn_dcc_controller_InternalLabIdClaimController\n\n\n\n\n\n" {
[app_coronawarn_dcc_controller_InternalLabIdClaimController]
portin " " as app_coronawarn_dcc_controller_InternalLabIdClaimController_requires_SPRING_APPLICATION_version_v1_labId_POST_
"app_coronawarn_dcc_controller_InternalLabIdClaimController_requires_SPRING_APPLICATION_version_v1_labId_POST_"--[app_coronawarn_dcc_controller_InternalLabIdClaimController]
}
interface "SPRING-APPLICATION/version/v1/labId[POST]" as interface.SPRING_APPLICATION_version_v1_labId_POST_
interface.SPRING_APPLICATION_version_v1_labId_POST_--"app_coronawarn_dcc_controller_InternalLabIdClaimController_requires_SPRING_APPLICATION_version_v1_labId_POST_"
component "app_coronawarn_dcc_controller_InternalPublicKeyController\n\n\n\n\n\n" {
[app_coronawarn_dcc_controller_InternalPublicKeyController]
portin " " as app_coronawarn_dcc_controller_InternalPublicKeyController_requires_SPRING_APPLICATION_version_v1_publicKey_search_GET_
"app_coronawarn_dcc_controller_InternalPublicKeyController_requires_SPRING_APPLICATION_version_v1_publicKey_search_GET_"--[app_coronawarn_dcc_controller_InternalPublicKeyController]
}
interface "SPRING-APPLICATION/version/v1/publicKey/search[GET]" as interface.SPRING_APPLICATION_version_v1_publicKey_search_GET_
interface.SPRING_APPLICATION_version_v1_publicKey_search_GET_--"app_coronawarn_dcc_controller_InternalPublicKeyController_requires_SPRING_APPLICATION_version_v1_publicKey_search_GET_"
component "app_coronawarn_dcc_service_DccService\n\n\n\n\n\n" {
[app_coronawarn_dcc_service_DccService]
}
component "app_coronawarn_logupload\n\n\n\n\n\n" {
[app_coronawarn_logupload_repository_LogRepository]
[app_coronawarn_logupload_service_LogService]
[app_coronawarn_logupload_service_LogCleanupService]
[app_coronawarn_logupload_service_FileStorageService]
[app_coronawarn_logupload_service_FileStorageService]..>[app_coronawarn_logupload_repository_LogRepository] : requires
[app_coronawarn_logupload_service_LogCleanupService]..>[app_coronawarn_logupload_repository_LogRepository] : requires
[app_coronawarn_logupload_service_LogService]..>[app_coronawarn_logupload_repository_LogRepository] : requires
}
component "app_coronawarn_logupload_controller_LogDownloadApiController\n\n\n\n\n\n" {
[app_coronawarn_logupload_controller_LogDownloadApiController]
portin " " as app_coronawarn_logupload_controller_LogDownloadApiController_requires_SPRING_APPLICATION_portal_api_logs_GET_
"app_coronawarn_logupload_controller_LogDownloadApiController_requires_SPRING_APPLICATION_portal_api_logs_GET_"--[app_coronawarn_logupload_controller_LogDownloadApiController]
}
interface "SPRING-APPLICATION/portal/api/logs[GET]" as interface.SPRING_APPLICATION_portal_api_logs_GET_
interface.SPRING_APPLICATION_portal_api_logs_GET_--"app_coronawarn_logupload_controller_LogDownloadApiController_requires_SPRING_APPLICATION_portal_api_logs_GET_"
component "app_coronawarn_logupload_controller_LogUploadApiController\n\n\n\n\n\n" {
[app_coronawarn_logupload_controller_LogUploadApiController]
portin " " as app_coronawarn_logupload_controller_LogUploadApiController_requires_SPRING_APPLICATION_api_logs_POST_
"app_coronawarn_logupload_controller_LogUploadApiController_requires_SPRING_APPLICATION_api_logs_POST_"--[app_coronawarn_logupload_controller_LogUploadApiController]
}
interface "SPRING-APPLICATION/api/logs[POST]" as interface.SPRING_APPLICATION_api_logs_POST_
interface.SPRING_APPLICATION_api_logs_POST_--"app_coronawarn_logupload_controller_LogUploadApiController_requires_SPRING_APPLICATION_api_logs_POST_"
component "app_coronawarn_logupload_controller_LogUploadErrorController\n\n\n\n\n\n" {
[app_coronawarn_logupload_controller_LogUploadErrorController]
portin " " as app_coronawarn_logupload_controller_LogUploadErrorController_requires_SPRING_APPLICATION_error
"app_coronawarn_logupload_controller_LogUploadErrorController_requires_SPRING_APPLICATION_error"--[app_coronawarn_logupload_controller_LogUploadErrorController]
}
interface "SPRING-APPLICATION/error" as interface.SPRING_APPLICATION_error
interface.SPRING_APPLICATION_error--"app_coronawarn_logupload_controller_LogUploadErrorController_requires_SPRING_APPLICATION_error"
component "app_coronawarn_logupload_controller_LogUploadPortalController\n\n\n\n\n\n" {
[app_coronawarn_logupload_controller_LogUploadPortalController]
portin " " as app_coronawarn_logupload_controller_LogUploadPortalController_requires_SPRING_APPLICATION_portal_logout_POST_
portin " " as app_coronawarn_logupload_controller_LogUploadPortalController_requires_SPRING_APPLICATION_GET_
portin " " as app_coronawarn_logupload_controller_LogUploadPortalController_requires_SPRING_APPLICATION_portal_start_GET_
portin " " as app_coronawarn_logupload_controller_LogUploadPortalController_requires_SPRING_APPLICATION_portal_search_POST_
"app_coronawarn_logupload_controller_LogUploadPortalController_requires_SPRING_APPLICATION_portal_logout_POST_"--[app_coronawarn_logupload_controller_LogUploadPortalController]
"app_coronawarn_logupload_controller_LogUploadPortalController_requires_SPRING_APPLICATION_portal_search_POST_"--[app_coronawarn_logupload_controller_LogUploadPortalController]
"app_coronawarn_logupload_controller_LogUploadPortalController_requires_SPRING_APPLICATION_GET_"--[app_coronawarn_logupload_controller_LogUploadPortalController]
"app_coronawarn_logupload_controller_LogUploadPortalController_requires_SPRING_APPLICATION_portal_start_GET_"--[app_coronawarn_logupload_controller_LogUploadPortalController]
}
interface "SPRING-APPLICATION/[GET]" as interface.SPRING_APPLICATION_GET_
interface.SPRING_APPLICATION_GET_--"app_coronawarn_logupload_controller_LogUploadPortalController_requires_SPRING_APPLICATION_GET_"
interface "SPRING-APPLICATION/portal/logout[POST]" as interface.SPRING_APPLICATION_portal_logout_POST_
interface.SPRING_APPLICATION_portal_logout_POST_--"app_coronawarn_logupload_controller_LogUploadPortalController_requires_SPRING_APPLICATION_portal_logout_POST_"
interface "SPRING-APPLICATION/portal/search[POST]" as interface.SPRING_APPLICATION_portal_search_POST_
interface.SPRING_APPLICATION_portal_search_POST_--"app_coronawarn_logupload_controller_LogUploadPortalController_requires_SPRING_APPLICATION_portal_search_POST_"
interface "SPRING-APPLICATION/portal/start[GET]" as interface.SPRING_APPLICATION_portal_start_GET_
interface.SPRING_APPLICATION_portal_start_GET_--"app_coronawarn_logupload_controller_LogUploadPortalController_requires_SPRING_APPLICATION_portal_start_GET_"
component "app_coronawarn_server_services_callback_controller_CallbackController\n\n\n\n\n\n" {
[app_coronawarn_server_services_callback_controller_CallbackController]
portin " " as app_coronawarn_server_services_callback_controller_CallbackController_requires_SPRING_APPLICATION_version_v1_callback_GET_
"app_coronawarn_server_services_callback_controller_CallbackController_requires_SPRING_APPLICATION_version_v1_callback_GET_"--[app_coronawarn_server_services_callback_controller_CallbackController]
}
interface "SPRING-APPLICATION/version/v1/callback[GET]" as interface.SPRING_APPLICATION_version_v1_callback_GET_
interface.SPRING_APPLICATION_version_v1_callback_GET_--"app_coronawarn_server_services_callback_controller_CallbackController_requires_SPRING_APPLICATION_version_v1_callback_GET_"
component "app_coronawarn_server_services_submission_controller_SubmissionController\n\n\n\n\n\n" {
[app_coronawarn_server_services_submission_controller_SubmissionController]
portin " " as app_coronawarn_server_services_submission_controller_SubmissionController_requires_SPRING_APPLICATION_version_v1_diagnosis_keys_POST_2
portin " " as app_coronawarn_server_services_submission_controller_SubmissionController_requires_SPRING_APPLICATION_version_v1_submission_on_behalf_POST_
"app_coronawarn_server_services_submission_controller_SubmissionController_requires_SPRING_APPLICATION_version_v1_diagnosis_keys_POST_2"--[app_coronawarn_server_services_submission_controller_SubmissionController]
"app_coronawarn_server_services_submission_controller_SubmissionController_requires_SPRING_APPLICATION_version_v1_submission_on_behalf_POST_"--[app_coronawarn_server_services_submission_controller_SubmissionController]
}
interface "SPRING-APPLICATION/version/v1/diagnosis-keys[POST]$2" as interface.SPRING_APPLICATION_version_v1_diagnosis_keys_POST_2
interface.SPRING_APPLICATION_version_v1_diagnosis_keys_POST_2--"app_coronawarn_server_services_submission_controller_SubmissionController_requires_SPRING_APPLICATION_version_v1_diagnosis_keys_POST_2"
interface "SPRING-APPLICATION/version/v1/submission-on-behalf[POST]" as interface.SPRING_APPLICATION_version_v1_submission_on_behalf_POST_
interface.SPRING_APPLICATION_version_v1_submission_on_behalf_POST_--"app_coronawarn_server_services_submission_controller_SubmissionController_requires_SPRING_APPLICATION_version_v1_submission_on_behalf_POST_"
component "app_coronawarn_server_services_submission_verification_SrsOtpVerifier\n\n\n\n\n\n" {
[app_coronawarn_server_services_submission_verification_SrsOtpVerifier]
}
component "app_coronawarn_server_services_submission_verification_TanVerifier\n\n\n\n\n\n" {
[app_coronawarn_server_services_submission_verification_TanVerifier]
}
component "app_coronawarn_testresult\n\n\n\n\n\n" {
[app_coronawarn_testresult_service_TestResultService]
[app_coronawarn_testresult_TestResultRepository]
[app_coronawarn_testresult_service_TestResultService]..>[app_coronawarn_testresult_TestResultRepository] : requires
}
component "app_coronawarn_testresult_TestResultController\n\n\n\n\n\n" {
[app_coronawarn_testresult_TestResultController]
portin " " as app_coronawarn_testresult_TestResultController_requires_SPRING_APPLICATION_api_v1
"app_coronawarn_testresult_TestResultController_requires_SPRING_APPLICATION_api_v1"--[app_coronawarn_testresult_TestResultController]
}
interface "SPRING-APPLICATION/api/v1" as interface.SPRING_APPLICATION_api_v1
interface.SPRING_APPLICATION_api_v1--"app_coronawarn_testresult_TestResultController_requires_SPRING_APPLICATION_api_v1"
component "app_coronawarn_verification_controller_ExternalTanController\n\n\n\n\n\n" {
[app_coronawarn_verification_controller_ExternalTanController]
portin " " as app_coronawarn_verification_controller_ExternalTanController_requires_SPRING_APPLICATION_version_v1_tan_POST_
"app_coronawarn_verification_controller_ExternalTanController_requires_SPRING_APPLICATION_version_v1_tan_POST_"--[app_coronawarn_verification_controller_ExternalTanController]
}
interface "SPRING-APPLICATION/version/v1/tan[POST]" as interface.SPRING_APPLICATION_version_v1_tan_POST_
interface.SPRING_APPLICATION_version_v1_tan_POST_--"app_coronawarn_verification_controller_ExternalTanController_requires_SPRING_APPLICATION_version_v1_tan_POST_"
component "app_coronawarn_verification_controller_ExternalTestStateController\n\n\n\n\n\n" {
[app_coronawarn_verification_controller_ExternalTestStateController]
portin " " as app_coronawarn_verification_controller_ExternalTestStateController_requires_SPRING_APPLICATION_version_v1_testresult_POST_2
"app_coronawarn_verification_controller_ExternalTestStateController_requires_SPRING_APPLICATION_version_v1_testresult_POST_2"--[app_coronawarn_verification_controller_ExternalTestStateController]
}
interface "SPRING-APPLICATION/version/v1/testresult[POST]$2" as interface.SPRING_APPLICATION_version_v1_testresult_POST_2
interface.SPRING_APPLICATION_version_v1_testresult_POST_2--"app_coronawarn_verification_controller_ExternalTestStateController_requires_SPRING_APPLICATION_version_v1_testresult_POST_2"
component "app_coronawarn_verification_controller_ExternalTokenController\n\n\n\n\n\n" {
[app_coronawarn_verification_controller_ExternalTokenController]
portin " " as app_coronawarn_verification_controller_ExternalTokenController_requires_SPRING_APPLICATION_version_v1_registrationToken_POST_
"app_coronawarn_verification_controller_ExternalTokenController_requires_SPRING_APPLICATION_version_v1_registrationToken_POST_"--[app_coronawarn_verification_controller_ExternalTokenController]
}
interface "SPRING-APPLICATION/version/v1/registrationToken[POST]" as interface.SPRING_APPLICATION_version_v1_registrationToken_POST_
interface.SPRING_APPLICATION_version_v1_registrationToken_POST_--"app_coronawarn_verification_controller_ExternalTokenController_requires_SPRING_APPLICATION_version_v1_registrationToken_POST_"
component "app_coronawarn_verification_controller_InternalTanController\n\n\n\n\n\n" {
[app_coronawarn_verification_controller_InternalTanController]
portin " " as app_coronawarn_verification_controller_InternalTanController_requires_SPRING_APPLICATION_version_v1_tan_teletan_POST_
portin " " as app_coronawarn_verification_controller_InternalTanController_requires_SPRING_APPLICATION_version_v1_tan_verify_POST_
"app_coronawarn_verification_controller_InternalTanController_requires_SPRING_APPLICATION_version_v1_tan_verify_POST_"--[app_coronawarn_verification_controller_InternalTanController]
"app_coronawarn_verification_controller_InternalTanController_requires_SPRING_APPLICATION_version_v1_tan_teletan_POST_"--[app_coronawarn_verification_controller_InternalTanController]
}
interface "SPRING-APPLICATION/version/v1/tan/teletan[POST]" as interface.SPRING_APPLICATION_version_v1_tan_teletan_POST_
interface.SPRING_APPLICATION_version_v1_tan_teletan_POST_--"app_coronawarn_verification_controller_InternalTanController_requires_SPRING_APPLICATION_version_v1_tan_teletan_POST_"
interface "SPRING-APPLICATION/version/v1/tan/verify[POST]" as interface.SPRING_APPLICATION_version_v1_tan_verify_POST_
interface.SPRING_APPLICATION_version_v1_tan_verify_POST_--"app_coronawarn_verification_controller_InternalTanController_requires_SPRING_APPLICATION_version_v1_tan_verify_POST_"
component "app_coronawarn_verification_controller_InternalTestStateController\n\n\n\n\n\n" {
[app_coronawarn_verification_controller_InternalTestStateController]
portin " " as app_coronawarn_verification_controller_InternalTestStateController_requires_SPRING_APPLICATION_version_v1_testresult_POST_
"app_coronawarn_verification_controller_InternalTestStateController_requires_SPRING_APPLICATION_version_v1_testresult_POST_"--[app_coronawarn_verification_controller_InternalTestStateController]
}
interface "SPRING-APPLICATION/version/v1/testresult[POST]" as interface.SPRING_APPLICATION_version_v1_testresult_POST_
interface.SPRING_APPLICATION_version_v1_testresult_POST_--"app_coronawarn_verification_controller_InternalTestStateController_requires_SPRING_APPLICATION_version_v1_testresult_POST_"
component "app_coronawarn_verification_portal_controller_VerificationPortalController\n\n\n\n\n\n" {
[app_coronawarn_verification_portal_controller_VerificationPortalController]
portin " " as app_coronawarn_verification_portal_controller_VerificationPortalController_requires_SPRING_APPLICATION_cwa
"app_coronawarn_verification_portal_controller_VerificationPortalController_requires_SPRING_APPLICATION_cwa"--[app_coronawarn_verification_portal_controller_VerificationPortalController]
}
interface "SPRING-APPLICATION/cwa" as interface.SPRING_APPLICATION_cwa
interface.SPRING_APPLICATION_cwa--"app_coronawarn_verification_portal_controller_VerificationPortalController_requires_SPRING_APPLICATION_cwa"
component "app_coronawarn_verification_portal_controller_VerificationPortalErrorController\n\n\n\n\n\n" {
[app_coronawarn_verification_portal_controller_VerificationPortalErrorController]
portin " " as app_coronawarn_verification_portal_controller_VerificationPortalErrorController_requires_SPRING_APPLICATION_error_2
"app_coronawarn_verification_portal_controller_VerificationPortalErrorController_requires_SPRING_APPLICATION_error_2"--[app_coronawarn_verification_portal_controller_VerificationPortalErrorController]
}
interface "SPRING-APPLICATION/error$2" as interface.SPRING_APPLICATION_error_2
interface.SPRING_APPLICATION_error_2--"app_coronawarn_verification_portal_controller_VerificationPortalErrorController_requires_SPRING_APPLICATION_error_2"
component "app_coronawarn_verification_portal_service_HealthAuthorityService\n\n\n\n\n\n" {
[app_coronawarn_verification_portal_service_HealthAuthorityService]
}
component "app_coronawarn_verification_portal_service_TeleTanService\n\n\n\n\n\n" {
[app_coronawarn_verification_portal_service_TeleTanService]
}
component "app_coronawarn_verification_service_FakeRequestService\n\n\n\n\n\n" {
[app_coronawarn_verification_service_FakeRequestService]
}

@enduml
