@startuml
skinparam fixCircleLabelOverlapping true
component "ExternalTanController\n\n\n\n\n\n" {
[app_coronawarn_verification_controller_ExternalTanController]
portin " " as ExternalTanController.requires._version_v1_tan_POST_
"ExternalTanController.requires._version_v1_tan_POST_"--[app_coronawarn_verification_controller_ExternalTanController]
}
interface "/version/v1/tan[POST]" as interface._version_v1_tan_POST_
interface._version_v1_tan_POST_--"ExternalTanController.requires._version_v1_tan_POST_"
component "ExternalTestStateController\n\n\n\n\n\n" {
[app_coronawarn_verification_controller_ExternalTestStateController]
portin " " as ExternalTestStateController.requires._version_v1_testresult_POST_
"ExternalTestStateController.requires._version_v1_testresult_POST_"--[app_coronawarn_verification_controller_ExternalTestStateController]
}
interface "/version/v1/testresult[POST]" as interface._version_v1_testresult_POST_
interface._version_v1_testresult_POST_--"ExternalTestStateController.requires._version_v1_testresult_POST_"
component "ExternalTokenController\n\n\n\n\n\n" {
[app_coronawarn_verification_controller_ExternalTokenController]
portin " " as ExternalTokenController.requires._version_v1_registrationToken_POST_
"ExternalTokenController.requires._version_v1_registrationToken_POST_"--[app_coronawarn_verification_controller_ExternalTokenController]
}
interface "/version/v1/registrationToken[POST]" as interface._version_v1_registrationToken_POST_
interface._version_v1_registrationToken_POST_--"ExternalTokenController.requires._version_v1_registrationToken_POST_"
component "FakeRequestService\n\n\n\n\n\n" {
[app_coronawarn_verification_service_FakeRequestService]
}
component "InternalTanController\n\n\n\n\n\n" {
[app_coronawarn_verification_controller_InternalTanController]
portin " " as InternalTanController.requires._version_v1_tan_verify_POST_
portin " " as InternalTanController.requires._version_v1_tan_teletan_POST_
"InternalTanController.requires._version_v1_tan_verify_POST_"--[app_coronawarn_verification_controller_InternalTanController]
"InternalTanController.requires._version_v1_tan_teletan_POST_"--[app_coronawarn_verification_controller_InternalTanController]
}
interface "/version/v1/tan/verify[POST]" as interface._version_v1_tan_verify_POST_
interface._version_v1_tan_verify_POST_--"InternalTanController.requires._version_v1_tan_verify_POST_"
interface "/version/v1/tan/teletan[POST]" as interface._version_v1_tan_teletan_POST_
interface._version_v1_tan_teletan_POST_--"InternalTanController.requires._version_v1_tan_teletan_POST_"
component "InternalTestStateController\n\n\n\n\n\n" {
[app_coronawarn_verification_controller_InternalTestStateController]
portin " " as InternalTestStateController.requires._version_v1_testresult_POST_
"InternalTestStateController.requires._version_v1_testresult_POST_"--[app_coronawarn_verification_controller_InternalTestStateController]
}
interface "/version/v1/testresult[POST]" as interface._version_v1_testresult_POST_
interface._version_v1_testresult_POST_--"InternalTestStateController.requires._version_v1_testresult_POST_"
interface "app_coronawarn_verification_ObjectMapper" as interface.app_coronawarn_verification_ObjectMapper
[app_coronawarn_verification_TestUtils]..>interface.app_coronawarn_verification_ObjectMapper : requires
interface "/auth/realms/cwa/protocol/openid-connect/certs[GET]" as interface._auth_realms_cwa_protocol_openid_connect_certs_GET_
[app_coronawarn_verification_client_IamClient]..>interface._auth_realms_cwa_protocol_openid_connect_certs_GET_ : requires
interface "/api/v1/app/result[POST]" as interface._api_v1_app_result_POST_
[app_coronawarn_verification_client_TestResultServerClient]..>interface._api_v1_app_result_POST_ : requires
interface "JpaRepository" as interface.JpaRepository
interface.JpaRepository--[app_coronawarn_verification_repository_VerificationAppSessionRepository]
interface "JpaRepository" as interface.JpaRepository
interface.JpaRepository--[app_coronawarn_verification_repository_VerificationTanRepository]
interface "ConstraintValidator" as interface.ConstraintValidator
interface.ConstraintValidator--[app_coronawarn_verification_validator_RegistrationTokenRequestValidator]

@enduml
