@startuml
skinparam fixCircleLabelOverlapping true
skinparam componentStyle uml2
component "app_coronawarn_datadonation\n\n\n\n\n\n" {
[app_coronawarn_datadonation_common_persistence_service_SrsOtpService]
[app_coronawarn_datadonation_services_ppac_otp_GenerateSrsOtpController]
portin " " as app_coronawarn_datadonation_requires_SPRING_APPLICATION_gen_srs_GET_
[app_coronawarn_datadonation_services_ppac_otp_GenerateSrsOtpController]..>[app_coronawarn_datadonation_common_persistence_service_SrsOtpService] : requires
"app_coronawarn_datadonation_requires_SPRING_APPLICATION_gen_srs_GET_"--[app_coronawarn_datadonation_services_ppac_otp_GenerateSrsOtpController]
}
interface "SPRING-APPLICATION/gen/srs[GET]" as interface.SPRING_APPLICATION_gen_srs_GET_
interface.SPRING_APPLICATION_gen_srs_GET_--"app_coronawarn_datadonation_requires_SPRING_APPLICATION_gen_srs_GET_"
component "app_coronawarn_datadonation 2\n\n\n\n\n\n" {
[app_coronawarn_datadonation_common_persistence_repository_DeviceTokenRepository]
[app_coronawarn_datadonation_services_ppac_ios_verification_devicetoken_DeviceTokenService]
[app_coronawarn_datadonation_services_ppac_ios_verification_devicetoken_DeviceTokenService]..>[app_coronawarn_datadonation_common_persistence_repository_DeviceTokenRepository] : requires
}
component "app_coronawarn_datadonation 3\n\n\n\n\n\n" {
[app_coronawarn_datadonation_common_persistence_repository_ppac_android_SaltRepository]
[app_coronawarn_datadonation_common_persistence_service_SaltService]
[app_coronawarn_datadonation_services_ppac_android_controller_DeleteSaltController]
portin " " as app_coronawarn_datadonation_3_requires_SPRING_APPLICATION_delete_DELETE_
[app_coronawarn_datadonation_services_ppac_android_controller_DeleteSaltController]..>[app_coronawarn_datadonation_common_persistence_service_SaltService] : requires
[app_coronawarn_datadonation_common_persistence_service_SaltService]..>[app_coronawarn_datadonation_common_persistence_repository_ppac_android_SaltRepository] : requires
"app_coronawarn_datadonation_3_requires_SPRING_APPLICATION_delete_DELETE_"--[app_coronawarn_datadonation_services_ppac_android_controller_DeleteSaltController]
}
interface "SPRING-APPLICATION/delete[DELETE]" as interface.SPRING_APPLICATION_delete_DELETE_
interface.SPRING_APPLICATION_delete_DELETE_--"app_coronawarn_datadonation_3_requires_SPRING_APPLICATION_delete_DELETE_"
component "app_coronawarn_datadonation 4\n\n\n\n\n\n" {
[app_coronawarn_datadonation_common_persistence_service_AndroidIdService]
[app_coronawarn_datadonation_services_ppac_android_controller_PpaDataRequestAndroidConverter]
[app_coronawarn_datadonation_services_ppac_android_attestation_ProdAndroidIdVerificationStrategy]
[app_coronawarn_datadonation_common_persistence_repository_AndroidIdRepository]
[app_coronawarn_datadonation_services_ppac_android_attestation_ProdSrsRateLimitVerificationStrategy]
[app_coronawarn_datadonation_services_ppac_android_attestation_TestSrsRateLimitVerificationStrategy]
[app_coronawarn_datadonation_services_ppac_android_controller_validation_PpaDataRequestAndroidValidator]
[app_coronawarn_datadonation_services_ppac_android_attestation_DeviceAttestationVerifier]
[app_coronawarn_datadonation_services_ppac_android_controller_AndroidController]
portin " " as app_coronawarn_datadonation_4_requires_SPRING_APPLICATION_otp_POST_
portin " " as app_coronawarn_datadonation_4_requires_SPRING_APPLICATION_srs_POST_
portin " " as app_coronawarn_datadonation_4_requires_SPRING_APPLICATION_dat_POST_
portin " " as app_coronawarn_datadonation_4_requires_SPRING_APPLICATION_els_POST_3
[app_coronawarn_datadonation_services_ppac_android_controller_AndroidController]..>[app_coronawarn_datadonation_services_ppac_android_controller_PpaDataRequestAndroidConverter] : requires
[app_coronawarn_datadonation_services_ppac_android_controller_AndroidController]..>[app_coronawarn_datadonation_services_ppac_android_attestation_ProdSrsRateLimitVerificationStrategy] : requires
[app_coronawarn_datadonation_services_ppac_android_controller_AndroidController]..>[app_coronawarn_datadonation_services_ppac_android_controller_validation_PpaDataRequestAndroidValidator] : requires
[app_coronawarn_datadonation_services_ppac_android_controller_AndroidController]..>[app_coronawarn_datadonation_common_persistence_service_AndroidIdService] : requires
[app_coronawarn_datadonation_common_persistence_service_AndroidIdService]..>[app_coronawarn_datadonation_common_persistence_repository_AndroidIdRepository] : requires
[app_coronawarn_datadonation_services_ppac_android_controller_AndroidController]..>[app_coronawarn_datadonation_services_ppac_android_attestation_TestSrsRateLimitVerificationStrategy] : requires
[app_coronawarn_datadonation_services_ppac_android_controller_AndroidController]..>[app_coronawarn_datadonation_services_ppac_android_attestation_ProdAndroidIdVerificationStrategy] : requires
[app_coronawarn_datadonation_services_ppac_android_controller_AndroidController]..>[app_coronawarn_datadonation_services_ppac_android_attestation_DeviceAttestationVerifier] : requires
"app_coronawarn_datadonation_4_requires_SPRING_APPLICATION_els_POST_3"--[app_coronawarn_datadonation_services_ppac_android_controller_AndroidController]
"app_coronawarn_datadonation_4_requires_SPRING_APPLICATION_otp_POST_"--[app_coronawarn_datadonation_services_ppac_android_controller_AndroidController]
"app_coronawarn_datadonation_4_requires_SPRING_APPLICATION_srs_POST_"--[app_coronawarn_datadonation_services_ppac_android_controller_AndroidController]
"app_coronawarn_datadonation_4_requires_SPRING_APPLICATION_dat_POST_"--[app_coronawarn_datadonation_services_ppac_android_controller_AndroidController]
}
interface "SPRING-APPLICATION/dat[POST]" as interface.SPRING_APPLICATION_dat_POST_
interface.SPRING_APPLICATION_dat_POST_--"app_coronawarn_datadonation_4_requires_SPRING_APPLICATION_dat_POST_"
interface "SPRING-APPLICATION/els[POST]$3" as interface.SPRING_APPLICATION_els_POST_3
interface.SPRING_APPLICATION_els_POST_3--"app_coronawarn_datadonation_4_requires_SPRING_APPLICATION_els_POST_3"
interface "SPRING-APPLICATION/otp[POST]" as interface.SPRING_APPLICATION_otp_POST_
interface.SPRING_APPLICATION_otp_POST_--"app_coronawarn_datadonation_4_requires_SPRING_APPLICATION_otp_POST_"
interface "SPRING-APPLICATION/srs[POST]" as interface.SPRING_APPLICATION_srs_POST_
interface.SPRING_APPLICATION_srs_POST_--"app_coronawarn_datadonation_4_requires_SPRING_APPLICATION_srs_POST_"
component "app_coronawarn_datadonation 5\n\n\n\n\n\n" {
[app_coronawarn_datadonation_services_els_otp_GenerateElsOtpController]
[app_coronawarn_datadonation_common_persistence_service_ElsOtpService]
portin " " as app_coronawarn_datadonation_5_requires_SPRING_APPLICATION_gen_els_GET_
[app_coronawarn_datadonation_services_els_otp_GenerateElsOtpController]..>[app_coronawarn_datadonation_common_persistence_service_ElsOtpService] : requires
"app_coronawarn_datadonation_5_requires_SPRING_APPLICATION_gen_els_GET_"--[app_coronawarn_datadonation_services_els_otp_GenerateElsOtpController]
}
interface "SPRING-APPLICATION/gen/els[GET]" as interface.SPRING_APPLICATION_gen_els_GET_
interface.SPRING_APPLICATION_gen_els_GET_--"app_coronawarn_datadonation_5_requires_SPRING_APPLICATION_gen_els_GET_"
component "app_coronawarn_datadonation 6\n\n\n\n\n\n" {
[app_coronawarn_datadonation_services_edus_otp_GenerateOtpController]
[app_coronawarn_datadonation_common_persistence_service_OtpService]
portin " " as app_coronawarn_datadonation_6_requires_SPRING_APPLICATION_gen_otp_GET_
[app_coronawarn_datadonation_services_edus_otp_GenerateOtpController]..>[app_coronawarn_datadonation_common_persistence_service_OtpService] : requires
"app_coronawarn_datadonation_6_requires_SPRING_APPLICATION_gen_otp_GET_"--[app_coronawarn_datadonation_services_edus_otp_GenerateOtpController]
}
interface "SPRING-APPLICATION/gen/otp[GET]" as interface.SPRING_APPLICATION_gen_otp_GET_
interface.SPRING_APPLICATION_gen_otp_GET_--"app_coronawarn_datadonation_6_requires_SPRING_APPLICATION_gen_otp_GET_"
component "app_coronawarn_datadonation_common_persistence\n\n\n\n\n\n" {
[app_coronawarn_datadonation_common_persistence_repository_metrics_ClientMetadataRepository]
[app_coronawarn_datadonation_common_persistence_service_PpaDataService]
[app_coronawarn_datadonation_common_persistence_repository_metrics_KeySubmissionMetadataWithUserMetadataRepository]
[app_coronawarn_datadonation_common_persistence_repository_metrics_ExposureWindowRepository]
[app_coronawarn_datadonation_common_persistence_repository_metrics_UserMetadataRepository]
[app_coronawarn_datadonation_common_persistence_repository_metrics_ExposureRiskMetadataRepository]
[app_coronawarn_datadonation_common_persistence_repository_metrics_TestResultMetadataRepository]
[app_coronawarn_datadonation_common_persistence_repository_metrics_ExposureWindowTestResultsRepository]
[app_coronawarn_datadonation_common_persistence_repository_metrics_KeySubmissionMetadataWithClientMetadataRepository]
[app_coronawarn_datadonation_common_persistence_repository_metrics_SummarizedExposureWindowsWithUserMetadataRepository]
[app_coronawarn_datadonation_common_persistence_service_PpaDataService]..>[app_coronawarn_datadonation_common_persistence_repository_metrics_KeySubmissionMetadataWithUserMetadataRepository] : requires
[app_coronawarn_datadonation_common_persistence_service_PpaDataService]..>[app_coronawarn_datadonation_common_persistence_repository_metrics_SummarizedExposureWindowsWithUserMetadataRepository] : requires
[app_coronawarn_datadonation_common_persistence_service_PpaDataService]..>[app_coronawarn_datadonation_common_persistence_repository_metrics_ClientMetadataRepository] : requires
[app_coronawarn_datadonation_common_persistence_service_PpaDataService]..>[app_coronawarn_datadonation_common_persistence_repository_metrics_TestResultMetadataRepository] : requires
[app_coronawarn_datadonation_common_persistence_service_PpaDataService]..>[app_coronawarn_datadonation_common_persistence_repository_metrics_KeySubmissionMetadataWithClientMetadataRepository] : requires
[app_coronawarn_datadonation_common_persistence_service_PpaDataService]..>[app_coronawarn_datadonation_common_persistence_repository_metrics_ExposureWindowRepository] : requires
[app_coronawarn_datadonation_common_persistence_service_PpaDataService]..>[app_coronawarn_datadonation_common_persistence_repository_metrics_ExposureWindowTestResultsRepository] : requires
[app_coronawarn_datadonation_common_persistence_service_PpaDataService]..>[app_coronawarn_datadonation_common_persistence_repository_metrics_UserMetadataRepository] : requires
[app_coronawarn_datadonation_common_persistence_service_PpaDataService]..>[app_coronawarn_datadonation_common_persistence_repository_metrics_ExposureRiskMetadataRepository] : requires
}
component "app_coronawarn_datadonation_services_edus_otp_OtpController\n\n\n\n\n\n" {
[app_coronawarn_datadonation_services_edus_otp_OtpController]
portin " " as app_coronawarn_datadonation_services_edus_otp_OtpController_requires_SPRING_APPLICATION_otp_POST_2
"app_coronawarn_datadonation_services_edus_otp_OtpController_requires_SPRING_APPLICATION_otp_POST_2"--[app_coronawarn_datadonation_services_edus_otp_OtpController]
}
interface "SPRING-APPLICATION/otp[POST]$2" as interface.SPRING_APPLICATION_otp_POST_2
interface.SPRING_APPLICATION_otp_POST_2--"app_coronawarn_datadonation_services_edus_otp_OtpController_requires_SPRING_APPLICATION_otp_POST_2"
component "app_coronawarn_datadonation_services_els_otp_ElsOtpController\n\n\n\n\n\n" {
[app_coronawarn_datadonation_services_els_otp_ElsOtpController]
portin " " as app_coronawarn_datadonation_services_els_otp_ElsOtpController_requires_SPRING_APPLICATION_els_POST_
"app_coronawarn_datadonation_services_els_otp_ElsOtpController_requires_SPRING_APPLICATION_els_POST_"--[app_coronawarn_datadonation_services_els_otp_ElsOtpController]
}
interface "SPRING-APPLICATION/els[POST]" as interface.SPRING_APPLICATION_els_POST_
interface.SPRING_APPLICATION_els_POST_--"app_coronawarn_datadonation_services_els_otp_ElsOtpController_requires_SPRING_APPLICATION_els_POST_"
component "app_coronawarn_datadonation_services_ppac_commons_FakeRequestController\n\n\n\n\n\n" {
[app_coronawarn_datadonation_services_ppac_commons_FakeRequestController]
portin " " as app_coronawarn_datadonation_services_ppac_commons_FakeRequestController_requires_SPRING_APPLICATION_POST_
"app_coronawarn_datadonation_services_ppac_commons_FakeRequestController_requires_SPRING_APPLICATION_POST_"--[app_coronawarn_datadonation_services_ppac_commons_FakeRequestController]
}
interface "SPRING-APPLICATION/[POST]" as interface.SPRING_APPLICATION_POST_
interface.SPRING_APPLICATION_POST_--"app_coronawarn_datadonation_services_ppac_commons_FakeRequestController_requires_SPRING_APPLICATION_POST_"
component "app_coronawarn_datadonation_services_ppac_ios\n\n\n\n\n\n" {
[app_coronawarn_datadonation_services_ppac_ios_controller_IosController]
[app_coronawarn_datadonation_services_ppac_ios_controller_PpaDataRequestIosConverter]
[app_coronawarn_datadonation_services_ppac_ios_verification_PpacProcessor]
portin " " as app_coronawarn_datadonation_services_ppac_ios_requires_SPRING_APPLICATION_otp_POST_3
portin " " as app_coronawarn_datadonation_services_ppac_ios_requires_SPRING_APPLICATION_dat_POST_2
portin " " as app_coronawarn_datadonation_services_ppac_ios_requires_SPRING_APPLICATION_els_POST_2
portin " " as app_coronawarn_datadonation_services_ppac_ios_requires_SPRING_APPLICATION_srs_POST_3
[app_coronawarn_datadonation_services_ppac_ios_controller_IosController]..>[app_coronawarn_datadonation_services_ppac_ios_verification_PpacProcessor] : requires
[app_coronawarn_datadonation_services_ppac_ios_controller_IosController]..>[app_coronawarn_datadonation_services_ppac_ios_controller_PpaDataRequestIosConverter] : requires
"app_coronawarn_datadonation_services_ppac_ios_requires_SPRING_APPLICATION_otp_POST_3"--[app_coronawarn_datadonation_services_ppac_ios_controller_IosController]
"app_coronawarn_datadonation_services_ppac_ios_requires_SPRING_APPLICATION_srs_POST_3"--[app_coronawarn_datadonation_services_ppac_ios_controller_IosController]
"app_coronawarn_datadonation_services_ppac_ios_requires_SPRING_APPLICATION_els_POST_2"--[app_coronawarn_datadonation_services_ppac_ios_controller_IosController]
"app_coronawarn_datadonation_services_ppac_ios_requires_SPRING_APPLICATION_dat_POST_2"--[app_coronawarn_datadonation_services_ppac_ios_controller_IosController]
}
interface "SPRING-APPLICATION/dat[POST]$2" as interface.SPRING_APPLICATION_dat_POST_2
interface.SPRING_APPLICATION_dat_POST_2--"app_coronawarn_datadonation_services_ppac_ios_requires_SPRING_APPLICATION_dat_POST_2"
interface "SPRING-APPLICATION/els[POST]$2" as interface.SPRING_APPLICATION_els_POST_2
interface.SPRING_APPLICATION_els_POST_2--"app_coronawarn_datadonation_services_ppac_ios_requires_SPRING_APPLICATION_els_POST_2"
interface "SPRING-APPLICATION/otp[POST]$3" as interface.SPRING_APPLICATION_otp_POST_3
interface.SPRING_APPLICATION_otp_POST_3--"app_coronawarn_datadonation_services_ppac_ios_requires_SPRING_APPLICATION_otp_POST_3"
interface "SPRING-APPLICATION/srs[POST]$3" as interface.SPRING_APPLICATION_srs_POST_3
interface.SPRING_APPLICATION_srs_POST_3--"app_coronawarn_datadonation_services_ppac_ios_requires_SPRING_APPLICATION_srs_POST_3"
component "app_coronawarn_datadonation_services_srs_otp_SrsOtpController\n\n\n\n\n\n" {
[app_coronawarn_datadonation_services_srs_otp_SrsOtpController]
portin " " as app_coronawarn_datadonation_services_srs_otp_SrsOtpController_requires_SPRING_APPLICATION_srs_POST_2
"app_coronawarn_datadonation_services_srs_otp_SrsOtpController_requires_SPRING_APPLICATION_srs_POST_2"--[app_coronawarn_datadonation_services_srs_otp_SrsOtpController]
}
interface "SPRING-APPLICATION/srs[POST]$2" as interface.SPRING_APPLICATION_srs_POST_2
interface.SPRING_APPLICATION_srs_POST_2--"app_coronawarn_datadonation_services_srs_otp_SrsOtpController_requires_SPRING_APPLICATION_srs_POST_2"

@enduml
