@startuml
skinparam fixCircleLabelOverlapping true
skinparam componentStyle uml2
component "com_example\n\n\n\n\n\n" {
[com_example_MovieController]
[com_example_RecommendationController]
[com_example_MovieRepo]
portin " " as com_example_requires_SPRING_APPLICATION_recommendation
portin " " as com_example_requires_SPRING_APPLICATION_movie
[com_example_MovieController]..>[com_example_MovieRepo] : requires
[com_example_RecommendationController]..>[com_example_MovieRepo] : requires
"com_example_requires_SPRING_APPLICATION_movie"--[com_example_MovieController]
"com_example_requires_SPRING_APPLICATION_recommendation"--[com_example_RecommendationController]
}
interface "SPRING-APPLICATION/movie" as interface.SPRING_APPLICATION_movie
interface.SPRING_APPLICATION_movie--"com_example_requires_SPRING_APPLICATION_movie"
interface "SPRING-APPLICATION/recommendation" as interface.SPRING_APPLICATION_recommendation
interface.SPRING_APPLICATION_recommendation--"com_example_requires_SPRING_APPLICATION_recommendation"
component "com_example 2\n\n\n\n\n\n" {
[com_example_service_UserService]
[com_example_service_RecommendationClientService]
[com_example_MainController]
portin " " as com_example_2_requires_SPRING_APPLICATION_api
portout " " as com_example_2_provides_user_service_newuser
portout " " as com_example_2_provides_user_service_user
[com_example_MainController]..>[com_example_service_RecommendationClientService] : requires
[com_example_MainController]..>[com_example_service_UserService] : requires
"com_example_2_requires_SPRING_APPLICATION_api"--[com_example_MainController]
[com_example_service_UserService].."com_example_2_provides_user_service_user"
[com_example_service_UserService].."com_example_2_provides_user_service_newuser"
}
interface "SPRING-APPLICATION/api" as interface.SPRING_APPLICATION_api
interface.SPRING_APPLICATION_api--"com_example_2_requires_SPRING_APPLICATION_api"
interface "user-service/newuser" as interface.user_service_newuser
"com_example_2_provides_user_service_newuser"..>interface.user_service_newuser : requires
interface "user-service/user" as interface.user_service_user
"com_example_2_provides_user_service_user"..>interface.user_service_user : requires
component "com_example_UserController\n\n\n\n\n\n" {
[com_example_UserController]
portin " " as com_example_UserController_requires_SPRING_APPLICATION_user
"com_example_UserController_requires_SPRING_APPLICATION_user"--[com_example_UserController]
}
interface "SPRING-APPLICATION/user" as interface.SPRING_APPLICATION_user
interface.SPRING_APPLICATION_user--"com_example_UserController_requires_SPRING_APPLICATION_user"
interface "com_example_UserRepo" as interface.com_example_UserRepo
interface.com_example_UserRepo--[com_example_UserRepo_Provider]
interface "com_example_service_RestTemplate" as interface.com_example_service_RestTemplate
interface.com_example_service_RestTemplate--[com_example_service_RestTemplate_Provider]
interface "user-service/newuser" as interface.user_service_newuser
interface.user_service_newuser--[user_service_newuser_Provider]
interface "user-service/user" as interface.user_service_user
interface.user_service_user--[user_service_user_Provider]

@enduml
