@startuml
skinparam fixCircleLabelOverlapping true
skinparam componentStyle uml2
component "teammates_ui_servlets_DevServerLoginServlet\n\n\n\n\n\n" {
[teammates_ui_servlets_DevServerLoginServlet]
portin " " as teammates_ui_servlets_DevServerLoginServlet_requires_SERVICE_HOST_GET_POST_
"teammates_ui_servlets_DevServerLoginServlet_requires_SERVICE_HOST_GET_POST_"--[teammates_ui_servlets_DevServerLoginServlet]
}
interface "SERVICE-HOST/[GET,POST]" as interface.SERVICE_HOST_GET_POST_
interface.SERVICE_HOST_GET_POST_--"teammates_ui_servlets_DevServerLoginServlet_requires_SERVICE_HOST_GET_POST_"
component "teammates_ui_servlets_HealthCheckServlet\n\n\n\n\n\n" {
[teammates_ui_servlets_HealthCheckServlet]
portin " " as teammates_ui_servlets_HealthCheckServlet_requires_HealthCheckServlet_GET_
"teammates_ui_servlets_HealthCheckServlet_requires_HealthCheckServlet_GET_"--[teammates_ui_servlets_HealthCheckServlet]
}
interface "HealthCheckServlet/[GET]" as interface.HealthCheckServlet_GET_
interface.HealthCheckServlet_GET_--"teammates_ui_servlets_HealthCheckServlet_requires_HealthCheckServlet_GET_"
component "teammates_ui_servlets_LegacyUrlMapper\n\n\n\n\n\n" {
[teammates_ui_servlets_LegacyUrlMapper]
portin " " as teammates_ui_servlets_LegacyUrlMapper_requires_LegacyUrlMapper_GET_
"teammates_ui_servlets_LegacyUrlMapper_requires_LegacyUrlMapper_GET_"--[teammates_ui_servlets_LegacyUrlMapper]
}
interface "LegacyUrlMapper/[GET]" as interface.LegacyUrlMapper_GET_
interface.LegacyUrlMapper_GET_--"teammates_ui_servlets_LegacyUrlMapper_requires_LegacyUrlMapper_GET_"
component "teammates_ui_servlets_LoginServlet\n\n\n\n\n\n" {
[teammates_ui_servlets_LoginServlet]
portin " " as teammates_ui_servlets_LoginServlet_requires_LoginServlet_GET_
"teammates_ui_servlets_LoginServlet_requires_LoginServlet_GET_"--[teammates_ui_servlets_LoginServlet]
}
interface "LoginServlet/[GET]" as interface.LoginServlet_GET_
interface.LoginServlet_GET_--"teammates_ui_servlets_LoginServlet_requires_LoginServlet_GET_"
component "teammates_ui_servlets_LogoutServlet\n\n\n\n\n\n" {
[teammates_ui_servlets_LogoutServlet]
portin " " as teammates_ui_servlets_LogoutServlet_requires_LogoutServlet_GET_
"teammates_ui_servlets_LogoutServlet_requires_LogoutServlet_GET_"--[teammates_ui_servlets_LogoutServlet]
}
interface "LogoutServlet/[GET]" as interface.LogoutServlet_GET_
interface.LogoutServlet_GET_--"teammates_ui_servlets_LogoutServlet_requires_LogoutServlet_GET_"
component "teammates_ui_servlets_OAuth2CallbackServlet\n\n\n\n\n\n" {
[teammates_ui_servlets_OAuth2CallbackServlet]
portin " " as teammates_ui_servlets_OAuth2CallbackServlet_requires_OAuth2CallbackServlet_GET_
"teammates_ui_servlets_OAuth2CallbackServlet_requires_OAuth2CallbackServlet_GET_"--[teammates_ui_servlets_OAuth2CallbackServlet]
}
interface "OAuth2CallbackServlet/[GET]" as interface.OAuth2CallbackServlet_GET_
interface.OAuth2CallbackServlet_GET_--"teammates_ui_servlets_OAuth2CallbackServlet_requires_OAuth2CallbackServlet_GET_"
component "teammates_ui_servlets_WebApiServlet\n\n\n\n\n\n" {
[teammates_ui_servlets_WebApiServlet]
portin " " as teammates_ui_servlets_WebApiServlet_requires_WebApiServlet_DELETE_GET_POST_PUT_
"teammates_ui_servlets_WebApiServlet_requires_WebApiServlet_DELETE_GET_POST_PUT_"--[teammates_ui_servlets_WebApiServlet]
}
interface "WebApiServlet/[DELETE,GET,POST,PUT]" as interface.WebApiServlet_DELETE_GET_POST_PUT_
interface.WebApiServlet_DELETE_GET_POST_PUT_--"teammates_ui_servlets_WebApiServlet_requires_WebApiServlet_DELETE_GET_POST_PUT_"
component "teammates_ui_servlets_WebPageServlet\n\n\n\n\n\n" {
[teammates_ui_servlets_WebPageServlet]
portin " " as teammates_ui_servlets_WebPageServlet_requires_WebPageServlet_GET_
"teammates_ui_servlets_WebPageServlet_requires_WebPageServlet_GET_"--[teammates_ui_servlets_WebPageServlet]
}
interface "WebPageServlet/[GET]" as interface.WebPageServlet_GET_
interface.WebPageServlet_GET_--"teammates_ui_servlets_WebPageServlet_requires_WebPageServlet_GET_"
interface "API-HOST/" as interface.API_HOST_
interface.API_HOST_--[Gateway]
interface "HealthCheckServlet/[GET]" as interface.HealthCheckServlet_GET_
[Gateway]..>interface.HealthCheckServlet_GET_ : requires
interface "LegacyUrlMapper/[GET]" as interface.LegacyUrlMapper_GET_
[Gateway]..>interface.LegacyUrlMapper_GET_ : requires
interface "LoginServlet/[GET]" as interface.LoginServlet_GET_
[Gateway]..>interface.LoginServlet_GET_ : requires
interface "LogoutServlet/[GET]" as interface.LogoutServlet_GET_
[Gateway]..>interface.LogoutServlet_GET_ : requires
interface "OAuth2CallbackServlet/[GET]" as interface.OAuth2CallbackServlet_GET_
[Gateway]..>interface.OAuth2CallbackServlet_GET_ : requires
interface "WebApiServlet/[DELETE,GET,POST,PUT]" as interface.WebApiServlet_DELETE_GET_POST_PUT_
[Gateway]..>interface.WebApiServlet_DELETE_GET_POST_PUT_ : requires
interface "WebPageServlet/[GET]" as interface.WebPageServlet_GET_
[Gateway]..>interface.WebPageServlet_GET_ : requires
interface "teammates_common_util_Logger" as interface.teammates_common_util_Logger
interface.teammates_common_util_Logger--[teammates_common_util_Logger_Provider]

@enduml
