@startuml
skinparam fixCircleLabelOverlapping true
component "BaseController\n\n\n\n\n\n" {
[edu_kit_recipe_recipebackend_controller_BaseController]
portin " " as BaseController.requires._test_GET_
portin " " as BaseController.requires.__GET_
"BaseController.requires.__GET_"--[edu_kit_recipe_recipebackend_controller_BaseController]
"BaseController.requires._test_GET_"--[edu_kit_recipe_recipebackend_controller_BaseController]
}
interface "/[GET]" as interface.__GET_
interface.__GET_--"BaseController.requires.__GET_"
interface "/test[GET]" as interface._test_GET_
interface._test_GET_--"BaseController.requires._test_GET_"
component "CustomerController\n\n\n\n\n\n" {
[edu_kit_recipe_recipebackend_controller_api_v1_user_CustomerController]
portin " " as CustomerController.requires._api_v1_user
"CustomerController.requires._api_v1_user"--[edu_kit_recipe_recipebackend_controller_api_v1_user_CustomerController]
}
interface "/api/v1/user" as interface._api_v1_user
interface._api_v1_user--"CustomerController.requires._api_v1_user"
component "ExceptionController\n\n\n\n\n\n" {
[edu_kit_recipe_recipebackend_controller_exception_ExceptionController]
portin " " as ExceptionController.requires._error
"ExceptionController.requires._error"--[edu_kit_recipe_recipebackend_controller_exception_ExceptionController]
}
interface "/error" as interface._error
interface._error--"ExceptionController.requires._error"
component "ImageController\n\n\n\n\n\n" {
[edu_kit_recipe_recipebackend_controller_api_v1_image_ImageController]
[edu_kit_recipe_recipebackend_repository_CustomerRepository]
[edu_kit_recipe_recipebackend_repository_RecipeRepository]
[edu_kit_recipe_recipebackend_controller_api_v1_recipe_RecipeController]
[edu_kit_recipe_recipebackend_service_RecipeService]
[edu_kit_recipe_recipebackend_repository_ImageRepository]
[edu_kit_recipe_recipebackend_service_CustomerService]
portin " " as ImageController.requires._api_v1_images
portin " " as ImageController.requires._api_v1_recipes
[edu_kit_recipe_recipebackend_controller_api_v1_image_ImageController]..>[edu_kit_recipe_recipebackend_repository_ImageRepository] : requires
[edu_kit_recipe_recipebackend_service_RecipeService]..>[edu_kit_recipe_recipebackend_repository_ImageRepository] : requires
[edu_kit_recipe_recipebackend_controller_api_v1_recipe_RecipeController]..>[edu_kit_recipe_recipebackend_repository_RecipeRepository] : requires
[edu_kit_recipe_recipebackend_service_RecipeService]..>[edu_kit_recipe_recipebackend_repository_RecipeRepository] : requires
[edu_kit_recipe_recipebackend_service_CustomerService]..>[edu_kit_recipe_recipebackend_repository_RecipeRepository] : requires
[edu_kit_recipe_recipebackend_service_CustomerService]..>[edu_kit_recipe_recipebackend_repository_CustomerRepository] : requires
"ImageController.requires._api_v1_recipes"--[edu_kit_recipe_recipebackend_controller_api_v1_recipe_RecipeController]
"ImageController.requires._api_v1_images"--[edu_kit_recipe_recipebackend_controller_api_v1_image_ImageController]
}
interface "/api/v1/recipes" as interface._api_v1_recipes
interface._api_v1_recipes--"ImageController.requires._api_v1_recipes"
interface "/api/v1/images" as interface._api_v1_images
interface._api_v1_images--"ImageController.requires._api_v1_images"
component "IngredientsController\n\n\n\n\n\n" {
[edu_kit_recipe_recipebackend_controller_api_v1_ingredients_IngredientsController]
[edu_kit_recipe_recipebackend_repository_IngredientRepository]
[edu_kit_recipe_recipebackend_controller_api_v1_tag_TagsController]
[edu_kit_recipe_recipebackend_repository_tag_TagRepository]
portin " " as IngredientsController.requires._api_v1_ingredients
portin " " as IngredientsController.requires._api_v1_tags
[edu_kit_recipe_recipebackend_controller_api_v1_ingredients_IngredientsController]..>[edu_kit_recipe_recipebackend_repository_IngredientRepository] : requires
[edu_kit_recipe_recipebackend_controller_api_v1_ingredients_IngredientsController]..>[edu_kit_recipe_recipebackend_repository_tag_TagRepository] : requires
[edu_kit_recipe_recipebackend_controller_api_v1_tag_TagsController]..>[edu_kit_recipe_recipebackend_repository_tag_TagRepository] : requires
"IngredientsController.requires._api_v1_tags"--[edu_kit_recipe_recipebackend_controller_api_v1_tag_TagsController]
"IngredientsController.requires._api_v1_ingredients"--[edu_kit_recipe_recipebackend_controller_api_v1_ingredients_IngredientsController]
}
interface "/api/v1/tags" as interface._api_v1_tags
interface._api_v1_tags--"IngredientsController.requires._api_v1_tags"
interface "/api/v1/ingredients" as interface._api_v1_ingredients
interface._api_v1_ingredients--"IngredientsController.requires._api_v1_ingredients"
component "UnitController\n\n\n\n\n\n" {
[edu_kit_recipe_recipebackend_repository_UnitRepository]
[edu_kit_recipe_recipebackend_controller_api_v1_units_UnitController]
portin " " as UnitController.requires._api_v1_units
[edu_kit_recipe_recipebackend_controller_api_v1_units_UnitController]..>[edu_kit_recipe_recipebackend_repository_UnitRepository] : requires
"UnitController.requires._api_v1_units"--[edu_kit_recipe_recipebackend_controller_api_v1_units_UnitController]
}
interface "/api/v1/units" as interface._api_v1_units
interface._api_v1_units--"UnitController.requires._api_v1_units"
interface "ApplicationListener" as interface.ApplicationListener
interface.ApplicationListener--[edu_kit_recipe_recipebackend_config_LoginSuccessListener]
interface "JpaRepository" as interface.JpaRepository
interface.JpaRepository--[edu_kit_recipe_recipebackend_repository_IngredientWithAmountRepository]

@enduml
