@startuml
skinparam fixCircleLabelOverlapping true
skinparam componentStyle uml2
component "tools_descartes_teastore_auth\n\n\n\n\n\n" {
[tools_descartes_teastore_auth_rest_AuthCartRest]
[tools_descartes_teastore_auth_rest_ReadyRest]
[tools_descartes_teastore_auth_rest_AuthUserActionsRest]
[tools_descartes_teastore_auth_startup_AuthStartup]
portin " " as tools_descartes_teastore_auth_requires_SERVICE_HOST_ready_isready
portin " " as tools_descartes_teastore_auth_requires_SERVICE_HOST_cart
portin " " as tools_descartes_teastore_auth_requires_SERVICE_HOST_useractions
portout " " as tools_descartes_teastore_auth_provides_tools_descartes_teastore_registryclient_loadbalancers_ServiceLoadBalancer
portout " " as tools_descartes_teastore_auth_provides_tools_descartes_teastore_registryclient_RegistryClient
portout " " as tools_descartes_teastore_auth_provides_tools_descartes_teastore_registryclient_util_RESTClient
"tools_descartes_teastore_auth_requires_SERVICE_HOST_ready_isready"--[tools_descartes_teastore_auth_rest_ReadyRest]
"tools_descartes_teastore_auth_requires_SERVICE_HOST_useractions"--[tools_descartes_teastore_auth_rest_AuthUserActionsRest]
"tools_descartes_teastore_auth_requires_SERVICE_HOST_cart"--[tools_descartes_teastore_auth_rest_AuthCartRest]
[tools_descartes_teastore_auth_startup_AuthStartup].."tools_descartes_teastore_auth_provides_tools_descartes_teastore_registryclient_loadbalancers_ServiceLoadBalancer"
[tools_descartes_teastore_auth_startup_AuthStartup].."tools_descartes_teastore_auth_provides_tools_descartes_teastore_registryclient_RegistryClient"
[tools_descartes_teastore_auth_startup_AuthStartup].."tools_descartes_teastore_auth_provides_tools_descartes_teastore_registryclient_util_RESTClient"
}
interface "SERVICE-HOST/cart" as interface.SERVICE_HOST_cart
interface.SERVICE_HOST_cart--"tools_descartes_teastore_auth_requires_SERVICE_HOST_cart"
interface "SERVICE-HOST/ready/isready" as interface.SERVICE_HOST_ready_isready
interface.SERVICE_HOST_ready_isready--"tools_descartes_teastore_auth_requires_SERVICE_HOST_ready_isready"
interface "SERVICE-HOST/useractions" as interface.SERVICE_HOST_useractions
interface.SERVICE_HOST_useractions--"tools_descartes_teastore_auth_requires_SERVICE_HOST_useractions"
"tools_descartes_teastore_auth_provides_tools_descartes_teastore_registryclient_RegistryClient"..>[tools_descartes_teastore_registryclient_RegistryClient] : requires
"tools_descartes_teastore_auth_provides_tools_descartes_teastore_registryclient_loadbalancers_ServiceLoadBalancer"..>[tools_descartes_teastore_registryclient_loadbalancers_ServiceLoadBalancer] : requires
"tools_descartes_teastore_auth_provides_tools_descartes_teastore_registryclient_util_RESTClient"..>[tools_descartes_teastore_registryclient_util_RESTClient] : requires
component "tools_descartes_teastore_image\n\n\n\n\n\n" {
[tools_descartes_teastore_image_setup_ImageProviderStartup]
[tools_descartes_teastore_image_rest_ImageProviderEndpoint]
portin " " as tools_descartes_teastore_image_requires_SERVICE_HOST_image
portout " " as tools_descartes_teastore_image_provides_tools_descartes_teastore_registryclient_loadbalancers_ServiceLoadBalancer
portout " " as tools_descartes_teastore_image_provides_tools_descartes_teastore_registryclient_RegistryClient
"tools_descartes_teastore_image_requires_SERVICE_HOST_image"--[tools_descartes_teastore_image_rest_ImageProviderEndpoint]
[tools_descartes_teastore_image_setup_ImageProviderStartup].."tools_descartes_teastore_image_provides_tools_descartes_teastore_registryclient_RegistryClient"
[tools_descartes_teastore_image_setup_ImageProviderStartup].."tools_descartes_teastore_image_provides_tools_descartes_teastore_registryclient_loadbalancers_ServiceLoadBalancer"
}
interface "SERVICE-HOST/image" as interface.SERVICE_HOST_image
interface.SERVICE_HOST_image--"tools_descartes_teastore_image_requires_SERVICE_HOST_image"
"tools_descartes_teastore_image_provides_tools_descartes_teastore_registryclient_RegistryClient"..>[tools_descartes_teastore_registryclient_RegistryClient] : requires
"tools_descartes_teastore_image_provides_tools_descartes_teastore_registryclient_loadbalancers_ServiceLoadBalancer"..>[tools_descartes_teastore_registryclient_loadbalancers_ServiceLoadBalancer] : requires
component "tools_descartes_teastore_kieker_rabbitmq\n\n\n\n\n\n" {
[tools_descartes_teastore_kieker_rabbitmq_Reset]
[tools_descartes_teastore_kieker_rabbitmq_DisplayLogs]
[tools_descartes_teastore_kieker_rabbitmq_IndexServlet]
portin " " as tools_descartes_teastore_kieker_rabbitmq_requires_SERVICE_HOST_reset_GET_
portin " " as tools_descartes_teastore_kieker_rabbitmq_requires_SERVICE_HOST_index_GET_
portin " " as tools_descartes_teastore_kieker_rabbitmq_requires_SERVICE_HOST_displaylogs_GET_
"tools_descartes_teastore_kieker_rabbitmq_requires_SERVICE_HOST_displaylogs_GET_"--[tools_descartes_teastore_kieker_rabbitmq_DisplayLogs]
"tools_descartes_teastore_kieker_rabbitmq_requires_SERVICE_HOST_reset_GET_"--[tools_descartes_teastore_kieker_rabbitmq_Reset]
"tools_descartes_teastore_kieker_rabbitmq_requires_SERVICE_HOST_index_GET_"--[tools_descartes_teastore_kieker_rabbitmq_IndexServlet]
}
interface "SERVICE-HOST/displaylogs[GET]" as interface.SERVICE_HOST_displaylogs_GET_
interface.SERVICE_HOST_displaylogs_GET_--"tools_descartes_teastore_kieker_rabbitmq_requires_SERVICE_HOST_displaylogs_GET_"
interface "SERVICE-HOST/index[GET]" as interface.SERVICE_HOST_index_GET_
interface.SERVICE_HOST_index_GET_--"tools_descartes_teastore_kieker_rabbitmq_requires_SERVICE_HOST_index_GET_"
interface "SERVICE-HOST/reset[GET]" as interface.SERVICE_HOST_reset_GET_
interface.SERVICE_HOST_reset_GET_--"tools_descartes_teastore_kieker_rabbitmq_requires_SERVICE_HOST_reset_GET_"
component "tools_descartes_teastore_persistence\n\n\n\n\n\n" {
[tools_descartes_teastore_persistence_rest_UserEndpoint]
[tools_descartes_teastore_persistence_servlet_IndexServlet]
[tools_descartes_teastore_persistence_rest_ProductEndpoint]
[tools_descartes_teastore_persistence_rest_CacheManagerEndpoint]
[tools_descartes_teastore_persistence_rest_CategoryEndpoint]
[tools_descartes_teastore_persistence_rest_OrderItemEndpoint]
[tools_descartes_teastore_persistence_rest_OrderEndpoint]
[tools_descartes_teastore_persistence_rest_DatabaseGenerationEndpoint]
portin " " as tools_descartes_teastore_persistence_requires_SERVICE_HOST_orderitems
portin " " as tools_descartes_teastore_persistence_requires_SERVICE_HOST_orders_user
portin " " as tools_descartes_teastore_persistence_requires_SERVICE_HOST_products
portin " " as tools_descartes_teastore_persistence_requires_SERVICE_HOST_generatedb
portin " " as tools_descartes_teastore_persistence_requires_SERVICE_HOST_index_GET_POST_
portin " " as tools_descartes_teastore_persistence_requires_SERVICE_HOST_users_name
portin " " as tools_descartes_teastore_persistence_requires_SERVICE_HOST_cache
"tools_descartes_teastore_persistence_requires_SERVICE_HOST_users_name"--[tools_descartes_teastore_persistence_rest_UserEndpoint]
"tools_descartes_teastore_persistence_requires_SERVICE_HOST_generatedb"--[tools_descartes_teastore_persistence_rest_DatabaseGenerationEndpoint]
"tools_descartes_teastore_persistence_requires_SERVICE_HOST_cache"--[tools_descartes_teastore_persistence_rest_CacheManagerEndpoint]
"tools_descartes_teastore_persistence_requires_SERVICE_HOST_orderitems"--[tools_descartes_teastore_persistence_rest_OrderItemEndpoint]
"tools_descartes_teastore_persistence_requires_SERVICE_HOST_orders_user"--[tools_descartes_teastore_persistence_rest_OrderEndpoint]
"tools_descartes_teastore_persistence_requires_SERVICE_HOST_index_GET_POST_"--[tools_descartes_teastore_persistence_servlet_IndexServlet]
"tools_descartes_teastore_persistence_requires_SERVICE_HOST_products"--[tools_descartes_teastore_persistence_rest_ProductEndpoint]
}
interface "SERVICE-HOST/cache" as interface.SERVICE_HOST_cache
interface.SERVICE_HOST_cache--"tools_descartes_teastore_persistence_requires_SERVICE_HOST_cache"
interface "SERVICE-HOST/generatedb" as interface.SERVICE_HOST_generatedb
interface.SERVICE_HOST_generatedb--"tools_descartes_teastore_persistence_requires_SERVICE_HOST_generatedb"
interface "SERVICE-HOST/index[GET,POST]" as interface.SERVICE_HOST_index_GET_POST_
interface.SERVICE_HOST_index_GET_POST_--"tools_descartes_teastore_persistence_requires_SERVICE_HOST_index_GET_POST_"
interface "SERVICE-HOST/orderitems" as interface.SERVICE_HOST_orderitems
interface.SERVICE_HOST_orderitems--"tools_descartes_teastore_persistence_requires_SERVICE_HOST_orderitems"
interface "SERVICE-HOST/orders/user" as interface.SERVICE_HOST_orders_user
interface.SERVICE_HOST_orders_user--"tools_descartes_teastore_persistence_requires_SERVICE_HOST_orders_user"
interface "SERVICE-HOST/products" as interface.SERVICE_HOST_products
interface.SERVICE_HOST_products--"tools_descartes_teastore_persistence_requires_SERVICE_HOST_products"
interface "SERVICE-HOST/users/name" as interface.SERVICE_HOST_users_name
interface.SERVICE_HOST_users_name--"tools_descartes_teastore_persistence_requires_SERVICE_HOST_users_name"
component "tools_descartes_teastore_recommender\n\n\n\n\n\n" {
[tools_descartes_teastore_recommender_rest_TrainEndpoint]
[tools_descartes_teastore_recommender_rest_RecommendEndpoint]
[tools_descartes_teastore_recommender_servlet_RecommenderStartup]
[tools_descartes_teastore_recommender_rest_RecommendSingleEndpoint]
[tools_descartes_teastore_recommender_servlet_IndexServlet]
portin " " as tools_descartes_teastore_recommender_requires_SERVICE_HOST_recommendsingle
portin " " as tools_descartes_teastore_recommender_requires_SERVICE_HOST_train
portin " " as tools_descartes_teastore_recommender_requires_SERVICE_HOST_recommend
portin " " as tools_descartes_teastore_recommender_requires_SERVICE_HOST_index_GET_POST_
portout " " as tools_descartes_teastore_recommender_provides_tools_descartes_teastore_recommender_servlet_TrainingSynchronizer
portout " " as tools_descartes_teastore_recommender_provides_tools_descartes_teastore_registryclient_RegistryClient
portout " " as tools_descartes_teastore_recommender_provides_tools_descartes_teastore_registryclient_loadbalancers_ServiceLoadBalancer
portout " " as tools_descartes_teastore_recommender_provides_tools_descartes_teastore_registryclient_util_RESTClient
"tools_descartes_teastore_recommender_requires_SERVICE_HOST_recommend"--[tools_descartes_teastore_recommender_rest_RecommendEndpoint]
"tools_descartes_teastore_recommender_requires_SERVICE_HOST_index_GET_POST_"--[tools_descartes_teastore_recommender_servlet_IndexServlet]
"tools_descartes_teastore_recommender_requires_SERVICE_HOST_train"--[tools_descartes_teastore_recommender_rest_TrainEndpoint]
"tools_descartes_teastore_recommender_requires_SERVICE_HOST_recommendsingle"--[tools_descartes_teastore_recommender_rest_RecommendSingleEndpoint]
[tools_descartes_teastore_recommender_servlet_RecommenderStartup].."tools_descartes_teastore_recommender_provides_tools_descartes_teastore_registryclient_util_RESTClient"
[tools_descartes_teastore_recommender_servlet_RecommenderStartup].."tools_descartes_teastore_recommender_provides_tools_descartes_teastore_registryclient_RegistryClient"
[tools_descartes_teastore_recommender_servlet_RecommenderStartup].."tools_descartes_teastore_recommender_provides_tools_descartes_teastore_recommender_servlet_TrainingSynchronizer"
[tools_descartes_teastore_recommender_servlet_RecommenderStartup].."tools_descartes_teastore_recommender_provides_tools_descartes_teastore_registryclient_loadbalancers_ServiceLoadBalancer"
}
interface "SERVICE-HOST/index[GET,POST]" as interface.SERVICE_HOST_index_GET_POST_
interface.SERVICE_HOST_index_GET_POST_--"tools_descartes_teastore_recommender_requires_SERVICE_HOST_index_GET_POST_"
interface "SERVICE-HOST/recommend" as interface.SERVICE_HOST_recommend
interface.SERVICE_HOST_recommend--"tools_descartes_teastore_recommender_requires_SERVICE_HOST_recommend"
interface "SERVICE-HOST/recommendsingle" as interface.SERVICE_HOST_recommendsingle
interface.SERVICE_HOST_recommendsingle--"tools_descartes_teastore_recommender_requires_SERVICE_HOST_recommendsingle"
interface "SERVICE-HOST/train" as interface.SERVICE_HOST_train
interface.SERVICE_HOST_train--"tools_descartes_teastore_recommender_requires_SERVICE_HOST_train"
"tools_descartes_teastore_recommender_provides_tools_descartes_teastore_recommender_servlet_TrainingSynchronizer"..>[tools_descartes_teastore_recommender_servlet_TrainingSynchronizer] : requires
"tools_descartes_teastore_recommender_provides_tools_descartes_teastore_registryclient_RegistryClient"..>[tools_descartes_teastore_registryclient_RegistryClient] : requires
"tools_descartes_teastore_recommender_provides_tools_descartes_teastore_registryclient_loadbalancers_ServiceLoadBalancer"..>[tools_descartes_teastore_registryclient_loadbalancers_ServiceLoadBalancer] : requires
"tools_descartes_teastore_recommender_provides_tools_descartes_teastore_registryclient_util_RESTClient"..>[tools_descartes_teastore_registryclient_util_RESTClient] : requires
component "tools_descartes_teastore_registry\n\n\n\n\n\n" {
[tools_descartes_teastore_registry_servlet_IndexServlet]
[tools_descartes_teastore_registry_rest_RegistryStartup]
[tools_descartes_teastore_registry_rest_RegistryREST]
portin " " as tools_descartes_teastore_registry_requires_SERVICE_HOST_index_GET_POST_
portin " " as tools_descartes_teastore_registry_requires_SERVICE_HOST_services
portout " " as tools_descartes_teastore_registry_provides_tools_descartes_teastore_registry_rest_Registry
"tools_descartes_teastore_registry_requires_SERVICE_HOST_index_GET_POST_"--[tools_descartes_teastore_registry_servlet_IndexServlet]
"tools_descartes_teastore_registry_requires_SERVICE_HOST_services"--[tools_descartes_teastore_registry_rest_RegistryREST]
[tools_descartes_teastore_registry_rest_RegistryStartup].."tools_descartes_teastore_registry_provides_tools_descartes_teastore_registry_rest_Registry"
}
interface "SERVICE-HOST/index[GET,POST]" as interface.SERVICE_HOST_index_GET_POST_
interface.SERVICE_HOST_index_GET_POST_--"tools_descartes_teastore_registry_requires_SERVICE_HOST_index_GET_POST_"
interface "SERVICE-HOST/services" as interface.SERVICE_HOST_services
interface.SERVICE_HOST_services--"tools_descartes_teastore_registry_requires_SERVICE_HOST_services"
"tools_descartes_teastore_registry_provides_tools_descartes_teastore_registry_rest_Registry"..>[tools_descartes_teastore_registry_rest_Registry] : requires
component "tools_descartes_teastore_webui\n\n\n\n\n\n" {
[tools_descartes_teastore_webui_servlet_ProductServlet]
[tools_descartes_teastore_webui_servlet_ProfileServlet]
[tools_descartes_teastore_webui_startup_WebuiStartup]
[tools_descartes_teastore_webui_servlet_DataBaseServlet]
[tools_descartes_teastore_webui_servlet_OrderServlet]
[tools_descartes_teastore_webui_servlet_CartActionServlet]
[tools_descartes_teastore_webui_servlet_DataBaseActionServlet]
[tools_descartes_teastore_webui_servlet_ErrorServlet]
[tools_descartes_teastore_webui_servlet_StatusServlet]
[tools_descartes_teastore_webui_servlet_IndexServlet]
[tools_descartes_teastore_webui_servlet_LoginServlet]
[tools_descartes_teastore_webui_servlet_LoginActionServlet]
[tools_descartes_teastore_webui_servlet_AboutUsServlet]
[tools_descartes_teastore_webui_rest_ReadyRest]
[tools_descartes_teastore_webui_servlet_CategoryServlet]
[tools_descartes_teastore_webui_servlet_CartServlet]
portin " " as tools_descartes_teastore_webui_requires_SERVICE_HOST_cart_GET_
portin " " as tools_descartes_teastore_webui_requires_SERVICE_HOST_about_GET_
portin " " as tools_descartes_teastore_webui_requires_SERVICE_HOST_error_GET_
portin " " as tools_descartes_teastore_webui_requires_SERVICE_HOST_cartAction_GET_
portin " " as tools_descartes_teastore_webui_requires_SERVICE_HOST_status_GET_
portin " " as tools_descartes_teastore_webui_requires_SERVICE_HOST_profile_GET_
portin " " as tools_descartes_teastore_webui_requires_SERVICE_HOST_category_GET_POST_
portin " " as tools_descartes_teastore_webui_requires_SERVICE_HOST_database_GET_
portin " " as tools_descartes_teastore_webui_requires_SERVICE_HOST_dataBaseAction_GET_
portin " " as tools_descartes_teastore_webui_requires_SERVICE_HOST_login_GET_
portin " " as tools_descartes_teastore_webui_requires_SERVICE_HOST_order_GET_POST_
portin " " as tools_descartes_teastore_webui_requires_SERVICE_HOST_ready_isready_2
portin " " as tools_descartes_teastore_webui_requires_SERVICE_HOST_loginAction_GET_POST_
portin " " as tools_descartes_teastore_webui_requires_SERVICE_HOST_index_GET_2
portin " " as tools_descartes_teastore_webui_requires_SERVICE_HOST_product_GET_
portout " " as tools_descartes_teastore_webui_provides_tools_descartes_teastore_registryclient_loadbalancers_ServiceLoadBalancer
portout " " as tools_descartes_teastore_webui_provides_tools_descartes_teastore_registryclient_RegistryClient
"tools_descartes_teastore_webui_requires_SERVICE_HOST_index_GET_2"--[tools_descartes_teastore_webui_servlet_IndexServlet]
"tools_descartes_teastore_webui_requires_SERVICE_HOST_category_GET_POST_"--[tools_descartes_teastore_webui_servlet_CategoryServlet]
"tools_descartes_teastore_webui_requires_SERVICE_HOST_login_GET_"--[tools_descartes_teastore_webui_servlet_LoginServlet]
"tools_descartes_teastore_webui_requires_SERVICE_HOST_order_GET_POST_"--[tools_descartes_teastore_webui_servlet_OrderServlet]
"tools_descartes_teastore_webui_requires_SERVICE_HOST_product_GET_"--[tools_descartes_teastore_webui_servlet_ProductServlet]
"tools_descartes_teastore_webui_requires_SERVICE_HOST_error_GET_"--[tools_descartes_teastore_webui_servlet_ErrorServlet]
"tools_descartes_teastore_webui_requires_SERVICE_HOST_loginAction_GET_POST_"--[tools_descartes_teastore_webui_servlet_LoginActionServlet]
"tools_descartes_teastore_webui_requires_SERVICE_HOST_cartAction_GET_"--[tools_descartes_teastore_webui_servlet_CartActionServlet]
"tools_descartes_teastore_webui_requires_SERVICE_HOST_database_GET_"--[tools_descartes_teastore_webui_servlet_DataBaseServlet]
"tools_descartes_teastore_webui_requires_SERVICE_HOST_dataBaseAction_GET_"--[tools_descartes_teastore_webui_servlet_DataBaseActionServlet]
"tools_descartes_teastore_webui_requires_SERVICE_HOST_cart_GET_"--[tools_descartes_teastore_webui_servlet_CartServlet]
"tools_descartes_teastore_webui_requires_SERVICE_HOST_status_GET_"--[tools_descartes_teastore_webui_servlet_StatusServlet]
"tools_descartes_teastore_webui_requires_SERVICE_HOST_profile_GET_"--[tools_descartes_teastore_webui_servlet_ProfileServlet]
"tools_descartes_teastore_webui_requires_SERVICE_HOST_ready_isready_2"--[tools_descartes_teastore_webui_rest_ReadyRest]
"tools_descartes_teastore_webui_requires_SERVICE_HOST_about_GET_"--[tools_descartes_teastore_webui_servlet_AboutUsServlet]
[tools_descartes_teastore_webui_startup_WebuiStartup].."tools_descartes_teastore_webui_provides_tools_descartes_teastore_registryclient_RegistryClient"
[tools_descartes_teastore_webui_startup_WebuiStartup].."tools_descartes_teastore_webui_provides_tools_descartes_teastore_registryclient_loadbalancers_ServiceLoadBalancer"
}
interface "SERVICE-HOST/about[GET]" as interface.SERVICE_HOST_about_GET_
interface.SERVICE_HOST_about_GET_--"tools_descartes_teastore_webui_requires_SERVICE_HOST_about_GET_"
interface "SERVICE-HOST/cartAction[GET]" as interface.SERVICE_HOST_cartAction_GET_
interface.SERVICE_HOST_cartAction_GET_--"tools_descartes_teastore_webui_requires_SERVICE_HOST_cartAction_GET_"
interface "SERVICE-HOST/cart[GET]" as interface.SERVICE_HOST_cart_GET_
interface.SERVICE_HOST_cart_GET_--"tools_descartes_teastore_webui_requires_SERVICE_HOST_cart_GET_"
interface "SERVICE-HOST/category[GET,POST]" as interface.SERVICE_HOST_category_GET_POST_
interface.SERVICE_HOST_category_GET_POST_--"tools_descartes_teastore_webui_requires_SERVICE_HOST_category_GET_POST_"
interface "SERVICE-HOST/dataBaseAction[GET]" as interface.SERVICE_HOST_dataBaseAction_GET_
interface.SERVICE_HOST_dataBaseAction_GET_--"tools_descartes_teastore_webui_requires_SERVICE_HOST_dataBaseAction_GET_"
interface "SERVICE-HOST/database[GET]" as interface.SERVICE_HOST_database_GET_
interface.SERVICE_HOST_database_GET_--"tools_descartes_teastore_webui_requires_SERVICE_HOST_database_GET_"
interface "SERVICE-HOST/error[GET]" as interface.SERVICE_HOST_error_GET_
interface.SERVICE_HOST_error_GET_--"tools_descartes_teastore_webui_requires_SERVICE_HOST_error_GET_"
interface "SERVICE-HOST/index[GET]$2" as interface.SERVICE_HOST_index_GET_2
interface.SERVICE_HOST_index_GET_2--"tools_descartes_teastore_webui_requires_SERVICE_HOST_index_GET_2"
interface "SERVICE-HOST/loginAction[GET,POST]" as interface.SERVICE_HOST_loginAction_GET_POST_
interface.SERVICE_HOST_loginAction_GET_POST_--"tools_descartes_teastore_webui_requires_SERVICE_HOST_loginAction_GET_POST_"
interface "SERVICE-HOST/login[GET]" as interface.SERVICE_HOST_login_GET_
interface.SERVICE_HOST_login_GET_--"tools_descartes_teastore_webui_requires_SERVICE_HOST_login_GET_"
interface "SERVICE-HOST/order[GET,POST]" as interface.SERVICE_HOST_order_GET_POST_
interface.SERVICE_HOST_order_GET_POST_--"tools_descartes_teastore_webui_requires_SERVICE_HOST_order_GET_POST_"
interface "SERVICE-HOST/product[GET]" as interface.SERVICE_HOST_product_GET_
interface.SERVICE_HOST_product_GET_--"tools_descartes_teastore_webui_requires_SERVICE_HOST_product_GET_"
interface "SERVICE-HOST/profile[GET]" as interface.SERVICE_HOST_profile_GET_
interface.SERVICE_HOST_profile_GET_--"tools_descartes_teastore_webui_requires_SERVICE_HOST_profile_GET_"
interface "SERVICE-HOST/ready/isready$2" as interface.SERVICE_HOST_ready_isready_2
interface.SERVICE_HOST_ready_isready_2--"tools_descartes_teastore_webui_requires_SERVICE_HOST_ready_isready_2"
interface "SERVICE-HOST/status[GET]" as interface.SERVICE_HOST_status_GET_
interface.SERVICE_HOST_status_GET_--"tools_descartes_teastore_webui_requires_SERVICE_HOST_status_GET_"
"tools_descartes_teastore_webui_provides_tools_descartes_teastore_registryclient_RegistryClient"..>[tools_descartes_teastore_registryclient_RegistryClient] : requires
"tools_descartes_teastore_webui_provides_tools_descartes_teastore_registryclient_loadbalancers_ServiceLoadBalancer"..>[tools_descartes_teastore_registryclient_loadbalancers_ServiceLoadBalancer] : requires
[tools_descartes_teastore_recommender_servlet_TrainingSynchronizer]..>[tools_descartes_teastore_recommender_servlet_TrainingSynchronizer] : requires
[tools_descartes_teastore_registry_rest_Registry]..>[tools_descartes_teastore_registry_rest_Registry] : requires
interface "SERVICE-HOST/services" as interface.SERVICE_HOST_services
[tools_descartes_teastore_registryclient_RegistryClient]..>interface.SERVICE_HOST_services : requires
[tools_descartes_teastore_registryclient_RegistryClient]..>[tools_descartes_teastore_registryclient_RegistryClient] : requires

@enduml
